<?xml version="1.0" encoding="UTF-8"?>
<svg width="1235px" height="407px" viewBox="0 0 1235 407" version="1.1" xmlns="http://www.w3.org/2000/svg" xmlns:xlink="http://www.w3.org/1999/xlink">
    <!-- Generator: Sketch 52.6 (67491) - http://www.bohemiancoding.com/sketch -->
    <title>bus copy</title>
    <desc>Created with Sketch.</desc>
    <g id="Page-2" stroke="none" stroke-width="1" fill="none" fill-rule="evenodd">
        <g id="Desktop-HD" transform="translate(-109.000000, -9000.000000)">
            <g id="bus-copy" transform="translate(109.000000, 9000.000000)">
                <ellipse id="Oval" fill="#7199BA" cx="188.577844" cy="333" rx="48.0688623" ry="48.1"></ellipse>
                <ellipse id="Oval" fill="#7199BA" cx="817.170659" cy="333" rx="48.0688623" ry="48.1"></ellipse>
                <ellipse id="Oval" fill="#010101" opacity="0.1" cx="617.5" cy="382.95" rx="617.5" ry="24.05"></ellipse>
                <path d="M1039.02695,63.7005733 L1039.02695,321.9 L29.5808383,321.9 L29.5808383,213.184452 C29.5808383,183.457544 31.2618477,170.717441 70.7655671,170.717441 L92.6186885,170.717441 L92.6186885,63.7005733 C92.5963431,46.7992338 99.2306359,30.5836353 111.057373,18.6325728 C122.884111,6.68151032 138.931021,-0.022523454 155.656539,5.68562242e-05 L994.480199,5.68562242e-05 C1030.6219,5.68562242e-05 1039.02695,28.8776243 1039.02695,63.7005733 Z" id="Path" fill="#FEF48E"></path>
                <path d="M1049.92025,0.00284161654 L226.79358,0.00284161654 C210.021193,-0.158127433 193.889541,6.52561589 182.029141,18.5498576 C170.168741,30.5740993 163.576071,46.928598 163.734846,63.9326818 L163.734846,170.482415 L141.033702,170.482415 C101.516896,170.482415 99.8353293,184.120781 99.8353293,213.102309 L99.8353293,336.7 L1112.97904,336.7 L1112.97899,63.9326818 C1113.00134,46.970497 1106.36485,30.6965218 1094.53419,18.7024352 C1082.70354,6.70834851 1066.65131,-0.0198199834 1049.92025,0.00284161654 Z" id="Path" fill="#B59A47"></path>
                <polygon id="Path" fill="#B59A47" points="347.57485 321.9 480.688623 321.9 480.688623 355.2 347.57485 355.2"></polygon>
                <path d="M1097.34996,63.8019842 C1097.34996,28.0729049 1085.60866,5.69467389e-05 1051.22343,5.69467389e-05 L229.332557,5.69467389e-05 C212.643665,-0.0225593111 196.631894,6.69214724 184.831054,18.6622357 C173.030215,30.6323242 166.410449,46.8737378 166.432746,63.8019842 L166.432746,170.989222 L144.627478,170.989222 C105.210262,170.989222 103.532934,184.6003 103.532934,213.52384 L103.532934,307.1 L1094.83397,307.1 L1094.83397,257.759843 L1098.18862,257.759843 L1098.18862,63.8019842 L1097.34996,63.8019842 Z" id="Path" fill="#EFD358"></path>
                <path d="M589.902125,145.092857 C589.902125,149.836589 586.13702,153.682143 581.492528,153.682143 L506.647117,153.682143 C502.002625,153.682143 498.237521,149.836589 498.237521,145.092857 L498.237521,69.5071429 C498.237521,64.7634113 502.002625,60.9178571 506.647117,60.9178571 L581.492528,60.9178571 C586.13702,60.9178571 589.902125,64.7634113 589.902125,69.5071429 L589.902125,145.092857 Z M477.213529,145.092857 C477.213529,149.836589 473.448424,153.682143 468.803932,153.682143 L393.117561,153.682143 C388.473069,153.682143 384.707965,149.836589 384.707965,145.092857 L384.707965,69.5071429 C384.707965,64.7634113 388.473069,60.9178571 393.117561,60.9178571 L467.962972,60.9178571 C472.607464,60.9178571 476.372569,64.7634113 476.372569,69.5071429 L476.372569,145.092857 L477.213529,145.092857 Z M702.590721,145.092857 C702.590721,149.836589 698.825617,153.682143 694.181124,153.682143 L619.335714,153.682143 C614.691221,153.682143 610.926117,149.836589 610.926117,145.092857 L610.926117,69.5071429 C610.926117,64.7634113 614.691221,60.9178571 619.335714,60.9178571 L694.181124,60.9178571 C698.825617,60.9178571 702.590721,64.7634113 702.590721,69.5071429 L702.590721,145.092857 Z M816.961237,145.092857 C816.961237,149.836589 813.196132,153.682143 808.55164,153.682143 L733.706229,153.682143 C729.061737,153.682143 725.296632,149.836589 725.296632,145.092857 L725.296632,69.5071429 C725.296632,64.7634113 729.061737,60.9178571 733.706229,60.9178571 L808.55164,60.9178571 C813.196132,60.9178571 816.961237,64.7634113 816.961237,69.5071429 L816.961237,145.092857 Z M929.649833,145.092857 C929.649833,149.836589 925.884728,153.682143 921.240236,153.682143 L846.394825,153.682143 C841.750333,153.682143 837.985229,149.836589 837.985229,145.092857 L837.985229,69.5071429 C837.985229,64.7634113 841.750333,60.9178571 846.394825,60.9178571 L921.240236,60.9178571 C925.884728,60.9178571 929.649833,64.7634113 929.649833,69.5071429 L929.649833,145.092857 Z M1042.33843,145.092857 C1042.33843,149.836589 1038.57332,153.682143 1033.92883,153.682143 L959.083422,153.682143 C954.43893,153.682143 950.673825,149.836589 950.673825,145.092857 L950.673825,69.5071429 C950.673825,64.7634113 954.43893,60.9178571 959.083422,60.9178571 L1033.92883,60.9178571 C1038.57332,60.9178571 1042.33843,64.7634113 1042.33843,69.5071429 L1042.33843,145.092857 Z M235.017143,145.092857 C235.017143,149.836589 238.782247,153.682143 243.426739,153.682143 L318.27215,153.682143 C322.916642,153.682143 326.681747,149.836589 326.681747,145.092857 L326.681747,69.5071429 C326.681747,64.7634113 322.916642,60.9178571 318.27215,60.9178571 L243.426739,60.9178571 C238.782247,60.9178571 235.017143,64.7634113 235.017143,69.5071429 L235.017143,145.092857 Z M1070.93106,60.0589286 C1066.28657,60.0589286 1062.52146,63.9044828 1062.52146,68.6482143 L1062.52146,145.092857 C1062.52146,149.836589 1066.28657,153.682143 1070.93106,153.682143 L1112.97904,153.682143 L1112.97904,59.2 L1070.93106,59.2 L1070.93106,60.0589286 Z M211.470272,145.092857 L211.470272,69.5071429 C211.470272,64.7634113 207.705167,60.9178571 203.060675,60.9178571 L162.694611,60.9178571 L162.694611,155.4 L203.060675,155.4 C207.988316,154.587155 211.57607,150.189859 211.470272,145.092857 Z" id="Shape" fill="#A7C1C5" fill-rule="nonzero"></path>
                <path d="M590.985092,161.635185 C590.985092,166.365402 587.225787,170.2 582.588448,170.2 L507.858315,170.2 C503.220976,170.2 499.46167,166.365402 499.46167,161.635185 L499.46167,86.2648148 C499.46167,81.5345982 503.220976,77.7 507.858315,77.7 L582.588448,77.7 C587.225787,77.7 590.985092,81.5345982 590.985092,86.2648148 L590.985092,161.635185 Z M478.47006,161.635185 C478.47006,166.365402 474.710754,170.2 470.073416,170.2 L394.503618,170.2 C389.866279,170.2 386.106974,166.365402 386.106974,161.635185 L386.106974,86.2648148 C386.106974,81.5345982 389.866279,77.7 394.503618,77.7 L469.233751,77.7 C473.87109,77.7 477.630395,81.5345982 477.630395,86.2648148 L477.630395,161.635185 L478.47006,161.635185 Z M703.500125,161.635185 C703.500125,166.365402 699.740819,170.2 695.103481,170.2 L620.373347,170.2 C615.736009,170.2 611.976703,166.365402 611.976703,161.635185 L611.976703,86.2648148 C611.976703,81.5345982 615.736009,77.7 620.373347,77.7 L695.103481,77.7 C699.740819,77.7 703.500125,81.5345982 703.500125,86.2648148 L703.500125,161.635185 Z M817.694486,161.635185 C817.694486,166.365402 813.93518,170.2 809.297842,170.2 L734.567708,170.2 C729.93037,170.2 726.171064,166.365402 726.171064,161.635185 L726.171064,86.2648148 C726.171064,81.5345982 729.93037,77.7 734.567708,77.7 L809.297842,77.7 C813.93518,77.7 817.694486,81.5345982 817.694486,86.2648148 L817.694486,161.635185 Z M930.209518,161.635185 C930.209518,166.365402 926.450213,170.2 921.812874,170.2 L847.082741,170.2 C842.445402,170.2 838.686097,166.365402 838.686097,161.635185 L838.686097,86.2648148 C838.686097,81.5345982 842.445402,77.7 847.082741,77.7 L921.812874,77.7 C926.450213,77.7 930.209518,81.5345982 930.209518,86.2648148 L930.209518,161.635185 Z M1042.72455,161.635185 C1042.72455,166.365402 1038.96525,170.2 1034.32791,170.2 L959.597773,170.2 C954.960435,170.2 951.201129,166.365402 951.201129,161.635185 L951.201129,86.2648148 C951.201129,81.5345982 954.960435,77.7 959.597773,77.7 L1034.32791,77.7 C1038.96525,77.7 1042.72455,81.5345982 1042.72455,86.2648148 L1042.72455,161.635185 Z M236.646707,161.635185 C236.646707,166.365402 240.406012,170.2 245.043351,170.2 L319.773484,170.2 C324.410823,170.2 328.170128,166.365402 328.170128,161.635185 L328.170128,86.2648148 C328.170128,81.5345982 324.410823,77.7 319.773484,77.7 L245.043351,77.7 C240.406012,77.7 236.646707,81.5345982 236.646707,86.2648148 L236.646707,161.635185 Z" id="Shape" fill="#B7E2F9" fill-rule="nonzero"></path>
                <path d="M1069.84032,74.8409091 C1065.07535,74.8409091 1061.21257,78.6057873 1061.21257,83.25 L1061.21257,158.090909 C1061.21257,162.735122 1065.07535,166.5 1069.84032,166.5 L1112.97904,166.5 L1112.97904,74 L1069.84032,74 L1069.84032,74.8409091 Z" id="Path" fill="#62AAC9"></path>
                <path d="M1070.4516,74.8589286 C1065.80956,74.8589286 1062.04645,78.7044828 1062.04645,83.4482143 L1062.04645,159.892857 C1062.04645,164.636589 1065.80956,168.482143 1070.4516,168.482143 L1098.18862,168.482143 L1098.18862,74 L1070.4516,74 L1070.4516,74.8589286 Z M211.444523,159.892857 L211.444523,84.3071429 C211.444523,79.5634113 207.681406,75.7178571 203.039366,75.7178571 L162.694611,75.7178571 L162.694611,170.2 L203.039366,170.2 C207.964406,169.387155 211.550265,164.989859 211.444523,159.892857 Z" id="Shape" fill="#B7E2F9" fill-rule="nonzero"></path>
                <polygon id="Path" fill="#E2F4FD" points="92.4401198 77.7 162.694611 77.7 162.694611 170.2 92.4401198 170.2"></polygon>
                <ellipse id="Oval" fill="#7199BA" cx="269.92515" cy="333" rx="48.0688623" ry="48.1"></ellipse>
                <path d="M207.065868,329.3 C207.065868,296.604743 233.746422,270.1 266.658554,270.1 C299.570686,270.1 326.25124,296.604743 326.25124,329.3 M808.028728,329.3 C808.028728,296.604743 834.709282,270.1 867.621414,270.1 C900.533545,270.1 927.214099,296.604743 927.214099,329.3 M908.74876,329.3 C908.74876,296.604743 935.429314,270.1 968.341446,270.1 C1001.25358,270.1 1027.93413,296.604743 1027.93413,329.3" id="Shape" fill="#B59A47" fill-rule="nonzero"></path>
                <path d="M221.856287,333 C221.856287,306.435104 243.37745,284.9 269.92515,284.9 C296.472849,284.9 317.994012,306.435104 317.994012,333" id="Path" fill="#7199BA"></path>
                <ellipse id="Oval" fill="#DAD386" cx="268.076347" cy="334.85" rx="27.7320359" ry="27.75"></ellipse>
                <ellipse id="Oval" fill="#7199BA" cx="868.937126" cy="333" rx="48.0688623" ry="48.1"></ellipse>
                <ellipse id="Oval" fill="#DAD386" cx="870.785928" cy="334.85" rx="27.7320359" ry="27.75"></ellipse>
                <ellipse id="Oval" fill="#7199BA" cx="968.772455" cy="333" rx="48.0688623" ry="48.1"></ellipse>
                <ellipse id="Oval" fill="#DAD386" cx="970.621257" cy="334.85" rx="27.7320359" ry="27.75"></ellipse>
                <polygon id="Path" fill="#B59A47" points="1057.51497 310.8 1116.67665 310.8 1116.67665 344.1 1057.51497 344.1"></polygon>
                <polygon id="Path" fill="#CCCCCC" points="1057.51497 307.1 1098.18862 307.1 1098.18862 329.3 1057.51497 329.3"></polygon>
                <polygon id="Path" fill="#E8E8E8" points="33.2784431 233.1 99.8353293 233.1 99.8353293 307.1 33.2784431 307.1"></polygon>
                <polygon id="Path" fill="#B59A47" points="96.1377246 310.8 192.275449 310.8 192.275449 344.1 96.1377246 344.1"></polygon>
                <polygon id="Path" fill="#E8E8E8" points="18.488024 307.1 192.275449 307.1 192.275449 329.3 18.488024 329.3"></polygon>
                <polygon id="Path" fill="#7199BA" points="81.3473054 307.1 192.275449 307.1 192.275449 329.3 81.3473054 329.3"></polygon>
                <path d="M100.393458,196.1 L114.625749,196.1 L114.625749,233.1 L100.393458,233.1 L100.393458,196.1 Z M25.8832335,196.1 L40.1155237,196.1 L40.1155237,233.1 L25.8832335,233.1 L25.8832335,196.1 Z" id="Shape" fill="#FFFFFF" fill-rule="nonzero"></path>
                <polygon id="Path" fill="#FBCD49" points="1098.18862 196.1 1112.97904 196.1 1112.97904 233.1 1098.18862 233.1"></polygon>
                <path d="M192.275449,211.221739 L1076.00299,211.221739 M220.782789,221.678261 L1076.00299,221.678261" id="Shape" stroke="#B59A47" fill="#FFFFFF" fill-rule="nonzero"></path>
                <ellipse id="Oval" fill="#F6906F" cx="168.241018" cy="35.15" rx="16.6392216" ry="16.65"></ellipse>
                <ellipse id="Oval" fill="#FEE322" cx="207.065868" cy="37" rx="11.0928144" ry="11.1"></ellipse>
                <ellipse id="Oval" fill="#F6906F" cx="97.9865269" cy="35.15" rx="16.6392216" ry="16.65"></ellipse>
                <ellipse id="Oval" fill="#FEE322" cx="118.323353" cy="37" rx="11.0928144" ry="11.1"></ellipse>
                <polygon id="Path" fill="#7199BA" points="273.622754 199.8 292.110778 199.8 292.110778 225.7 273.622754 225.7"></polygon>
                <polygon id="Path" fill="#F6906F" points="308.955422 251.6 288.413174 216.036471 308.955422 181.3 349.21823 181.3 369.760479 216.036471 349.21823 251.6"></polygon>
                <path d="M326.731664,83.7689351 C325.746697,83.4574887 324.870805,82.8657516 324.208276,82.0641804 L310.750206,113.090716 L312.516577,114.965947 C313.574813,116.023177 314.170597,117.466216 314.170597,118.97212 C314.170597,120.478025 313.574813,121.921064 312.516577,122.978294 L312.0119,122.978294 C318.003734,129.357581 318.214153,139.31193 312.497386,145.945381 C306.78062,152.578832 297.018712,153.707554 289.97431,148.549615 C287.60329,149.297345 285.139287,149.699154 282.656484,149.742943 C301.581895,149.742943 311.254883,157.499577 316.30166,169.43286 L320.675532,169.43286 C325.320962,169.43286 329.086826,165.616637 329.086826,160.909087 L329.086826,86.2408295 C328.691198,85.3794309 328.181857,84.5765283 327.572793,83.8541728 L326.731664,83.7689351 Z M282.320032,150.25437 C274.729728,150.216818 267.524746,146.861312 262.553492,141.048694 C259.202617,137.465274 257.053735,132.901225 256.413247,128.00732 C256.330335,126.787024 256.330335,125.562394 256.413247,124.342098 L246.48792,124.342098 L261.712362,107.29455 C262.514849,106.215401 263.385861,105.190377 264.319863,104.225992 C261.058794,102.177073 258.987285,98.6465831 258.768409,94.7646031 C258.790639,91.5770681 260.061532,88.5290439 262.301491,86.2911019 C264.54145,84.05316 267.566976,82.8086332 270.712447,82.83132 C272.085783,82.835927 273.449292,83.0662174 274.749868,83.5132219 L275.170433,82.9165577 C277.363826,80.7287148 280.883655,80.7287148 283.077049,82.9165577 L286.357453,86.4965427 L324.124163,81.8937049 C323.241813,80.8218467 322.791217,79.451983 322.862469,78.0580068 C321.908793,77.7687119 320.912012,77.6532707 319.918516,77.7170558 L245.058,77.7170558 C240.412571,77.7170558 236.646707,81.5332793 236.646707,86.2408295 L236.646707,161.676226 C236.646707,166.383777 240.412571,170.2 245.058,170.2 L249.095422,170.2 C253.805746,158.011004 263.478734,150.25437 282.320032,150.25437 Z" id="Shape"></path>
                <path d="M325.63062,81.577458 L287.780941,85.7920862 L284.493329,82.2517985 C282.295117,80.0882158 278.767556,80.0882158 276.569343,82.2517985 L276.147855,82.8418465 C274.844421,82.3997986 273.477917,82.1720619 272.101564,82.1675059 C268.905186,82.1445147 265.834265,83.4098314 263.581971,85.6778478 C261.329677,87.9458643 260.085864,91.025401 260.131287,94.2213427 C260.137511,98.2553954 262.204072,102.006768 265.610639,104.167865 C264.674584,105.121557 263.801659,106.135215 262.997409,107.202398 L247.739521,124.060911 L257.433759,124.060911 C257.350665,125.267676 257.350665,126.478726 257.433759,127.685491 C258.075654,132.525129 260.229257,137.038569 263.587493,140.582253 C270.175555,148.507312 280.914038,151.641957 290.731361,148.505755 C297.79124,153.606499 307.574593,152.490293 313.303918,145.930398 C319.033244,139.370503 318.822363,129.526534 312.817365,123.217985 L313.323152,123.217985 C314.383712,122.172478 314.980805,120.745441 314.980805,119.256235 C314.980805,117.767028 314.383712,116.339991 313.323152,115.294484 L312.227281,112.344244 L325.714917,81.6617506 C326.378901,82.4544334 327.256718,83.039609 328.243849,83.3476019 L329.086826,83.3476019 C328.390382,80.7703921 326.514177,78.6754248 324.028963,77.7 C324.027261,79.1537766 324.603432,80.5486318 325.63062,81.577458 Z" id="Path" fill="#62AAC8"></path>
                <path d="M281.017964,148 C262.146138,148 252.457477,155.287879 247.739521,166.5 L314.296407,166.5 C309.494201,155.287879 299.974039,148 281.017964,148 Z" id="Path" fill="#62AAC8"></path>
            </g>
        </g>
    </g>
</svg>