<?xml version="1.0" encoding="UTF-8"?>
<svg width="913px" height="781px" viewBox="0 0 913 781" version="1.1" xmlns="http://www.w3.org/2000/svg" xmlns:xlink="http://www.w3.org/1999/xlink">
    <!-- Generator: Sketch 52.6 (67491) - http://www.bohemiancoding.com/sketch -->
    <title>seasonofgiving copy</title>
    <desc>Created with Sketch.</desc>
    <g id="Page-2" stroke="none" stroke-width="1" fill="none" fill-rule="evenodd">
        <g id="Desktop-HD" transform="translate(-47.000000, -2650.000000)">
            <g id="seasonofgiving-copy" transform="translate(47.000000, 2650.000000)">
                <path d="M720.270929,604 C567.895188,604 168,269.005373 168,173.086567 C168,77.1677612 291.577456,0 444.317732,0 C597.058009,0 721,77.5283582 721,173.086567 L720.270929,604 Z" id="Path" fill="#D7C17D"></path>
                <ellipse id="Oval" fill="#231F20" opacity="0.2" cx="456.5" cy="750.5" rx="456.5" ry="30.5"></ellipse>
                <path d="M621.678289,197 C611.491447,278.104651 542.002632,341.546512 434.313158,341.546512 C326.623684,341.546512 237.488816,278.104651 227.301974,197 L168,197 L168,755 L721,755 L721,197 L621.678289,197 Z" id="Path" fill="#FFB300"></path>
                <polygon id="Path" fill="#D7C17D" points="86 152 634 152 634 467 86 467"></polygon>
                <g id="Group" opacity="0.1" transform="translate(120.000000, 97.000000)" fill="#000000">
                    <path d="M252.264254,65.0818428 L245.364189,65.0818428 L231.200898,12.0857175 C230.474575,7.36688443 226.842962,3.37402568 222.485026,1.92207704 C221.032381,1.55908989 219.579735,1.19610273 217.763929,1.19610273 L213.042832,1.19610273 C211.953348,1.19610273 210.863864,1.55908989 209.77438,1.55908989 C204.690121,3.01103852 200.695347,7.00389727 199.969024,12.0857175 L185.805733,65.0818428 L178.905667,65.0818428 L178.905667,326.432597 L251.901093,326.432597 L251.901093,290.859856 L252.264254,290.859856 L252.264254,65.0818428 Z" id="Path"></path>
                    <path d="M516.282535,120.255891 L516.282535,65.0818428 L509.38247,65.0818428 L508.656147,62.1779455 L495.58234,12.0857175 C494.492856,6.64091011 490.13492,2.2850642 484.6875,1.19610273 C483.961177,1.19610273 482.871693,0.833115567 482.145371,0.833115567 L477.424274,0.833115567 C476.697951,0.833115567 475.971628,0.833115567 475.245306,1.19610273 L473.79266,1.19610273 C468.708402,2.64805136 465.076789,6.64091011 463.987305,11.7227303 L449.824013,64.7188556 L442.923948,64.7188556 L442.923948,325.343636 L515.919374,325.343636 L515.919374,123.159788 L516.282535,120.255891 Z" id="Path"></path>
                    <path d="M424.765882,65.0818428 L410.965752,12.0857175 C409.876268,5.55194864 404.428848,0.833115567 397.891944,0.833115567 L391.35504,0.833115567 C390.991879,0.833115567 390.628718,0.833115567 390.265556,1.19610273 L389.539234,1.19610273 C384.454975,2.64805136 380.823362,6.64091011 379.733878,11.7227303 L365.570587,64.7188556 L358.670522,64.7188556 L358.670522,326.06961 L431.665947,326.06961 L431.665947,290.496869 L432.755431,290.496869 L432.755431,65.0818428 L424.765882,65.0818428 Z" id="Path"></path>
                    <path d="M73.225723,290.859856 L73.225723,64.7188556 L66.3256579,64.7188556 L52.1623664,11.7227303 C51.0728824,5.9149358 46.7149465,1.92207704 41.2675267,0.833115567 C40.5412041,0.833115567 39.4517201,0.470128407 38.7253975,0.470128407 L34.0043003,0.470128407 C32.9148163,0.470128407 31.8253324,0.833115567 30.7358484,0.833115567 C25.6515899,2.2850642 22.0199767,6.27792296 20.9304927,11.3597432 L7.49352385,65.0818428 L0.593458745,65.0818428 L0.593458745,327.158572 L73.5888843,327.158572 L73.225723,290.859856 Z" id="Path"></path>
                    <path d="M161.110763,65.0818428 L153.847536,65.0818428 L139.684245,12.0857175 C139.321083,10.6337689 138.957922,8.81883307 137.868438,7.72987159 C137.142116,6.27792296 136.052632,5.18896148 134.963148,4.1 C132.78418,2.2850642 129.515728,0.833115567 126.247276,0.833115567 L119.710372,0.833115567 C119.347211,0.833115567 118.620888,1.19610273 118.257727,1.19610273 C113.173468,2.64805136 109.178694,6.64091011 108.452371,11.7227303 L94.652241,64.7188556 L87.7521758,64.7188556 L87.7521758,326.06961 L160.747601,326.06961 L160.747601,65.0818428 L161.110763,65.0818428 Z" id="Path"></path>
                    <path d="M335.065036,65.0818428 L320.901744,12.0857175 C319.81226,5.55194864 314.001679,0.833115567 307.464775,1.19610273 L302.743678,1.19610273 C302.017355,1.19610273 301.291033,1.19610273 300.56471,1.55908989 C300.201549,1.55908989 299.838387,1.55908989 299.475226,1.92207704 C294.390968,3.01103852 290.396193,7.36688443 289.66987,12.4487047 L275.506579,65.4448299 L268.606514,65.4448299 L268.606514,326.795585 L341.601939,326.795585 L341.601939,291.222843 L342.328262,291.222843 L342.328262,65.0818428 L335.065036,65.0818428 Z" id="Path"></path>
                </g>
                <path d="M312.347059,77 L317.011765,77 C323.470588,77 328.852941,81.7643979 329.929412,88.3612565 L345,147 L284,147 L299.070588,88.3612565 C300.505882,81.7643979 305.888235,77 312.347059,77 Z" id="Path" fill="#F9CE1D"></path>
                <polygon id="Path" fill="#F9CE1D" points="279 141 350 141 350 400 279 400"></polygon>
                <polygon id="Path" fill="#FFE36C" points="279 162 350 162 350 380 279 380"></polygon>
                <path d="M279,341.994264 L350,341.994264 L350,350.621415 L279,350.621415 L279,341.994264 Z M279,356.372849 L350,356.372849 L350,365 L279,365 L279,356.372849 Z M279,177 L350,177 L350,185.627151 L279,185.627151 L279,177 Z M279,191.378585 L350,191.378585 L350,200.005736 L279,200.005736 L279,191.378585 Z M302.666667,233.435946 L326.333333,233.435946 C333.39801,233.435946 339.049751,239.18738 339.049751,246.376673 L339.049751,309.642447 C339.049751,316.83174 333.39801,322.583174 326.333333,322.583174 L302.666667,322.583174 C295.60199,322.583174 289.950249,316.83174 289.950249,309.642447 L289.950249,246.376673 C289.950249,239.18738 295.60199,233.435946 302.666667,233.435946 Z" id="Shape" fill="#F9CE1D" fill-rule="nonzero"></path>
                <path d="M576.347059,77 L581.011765,77 C587.470588,77 592.852941,81.7643979 593.929412,88.3612565 L609,147 L548,147 L563.070588,88.3612565 C564.505882,81.7643979 569.888235,77 576.347059,77 Z" id="Path" fill="#5E35B1"></path>
                <polygon id="Path" fill="#5E35B1" points="612.848434 400 542 399.956841 542.151566 141 613 141.043159"></polygon>
                <polygon id="Path" fill="#9575CD" points="612.876583 380 542 379.956697 542.123417 162 613 162.043303"></polygon>
                <path d="M612.8063,350.342774 L542.017609,350.299718 L542.024653,341.688373 L612.813343,341.73143 L612.8063,350.342774 Z M612.78869,365 L542,364.956943 L542.007044,356.345599 L612.795734,356.388656 L612.78869,365 Z M613,185.654401 L542.21131,185.611344 L542.21131,177 L613,177.060997 L613,185.654401 Z M612.982391,200.311627 L542.1937,200.275746 L542.1937,191.664402 L612.982391,191.700282 L612.982391,200.311627 Z M565.966022,233.185434 L589.562252,233.185434 C596.605903,233.185434 602.240823,238.92633 602.240823,246.102451 L602.240823,309.252309 C602.240823,316.42843 596.605903,322.169326 589.562252,322.169326 L565.966022,322.169326 C558.922371,322.169326 553.28745,316.42843 553.28745,309.252309 L553.28745,246.102451 C552.935268,238.92633 558.922371,233.185434 565.966022,233.185434 Z" id="Shape" fill="#5E35B1" fill-rule="nonzero"></path>
                <path d="M494.347059,77 L499.011765,77 C505.470588,77 510.852941,81.7643979 511.929412,88.3612565 L527,147 L466,147 L481.070588,88.3612565 C482.505882,81.7643979 487.888235,77 494.347059,77 Z" id="Path" fill="#29B6F6"></path>
                <polygon id="Path" fill="#29B6F6" points="532.648515 400 462 399.899317 462.351485 141 533 141.100683"></polygon>
                <polygon id="Path" fill="#4AD0FF" points="532.708022 380 462 379.898987 462.291978 162 533 162.101013"></polygon>
                <path d="M532.89424,350.343941 L462.035253,350.243508 L462.049355,341.634957 L532.908342,341.73539 L532.89424,350.343941 Z M532.858987,365 L462,364.899567 L462.007051,356.291016 L532.866038,356.387862 L532.858987,365 Z M532.989424,185.708984 L462.130437,185.608551 L462.141013,177 L533,177.100433 L532.989424,185.708984 Z M532.94712,200.361456 L462.088133,200.26461 L462.102234,191.656059 L532.961221,191.752905 L532.94712,200.361456 Z M485.707795,233.253296 L509.327458,233.253296 C516.378103,233.253296 522.01862,238.99233 522.01862,246.166123 L522.01862,309.295499 C522.01862,316.469292 516.378103,322.208326 509.327458,322.208326 L485.707795,322.208326 C478.65715,322.208326 473.016634,316.469292 473.016634,309.295499 L473.016634,246.166123 C473.016634,238.99233 479.009682,233.253296 485.707795,233.253296 Z" id="Shape" fill="#29B6F6" fill-rule="nonzero"></path>
                <path d="M403.347059,77 L408.011765,77 C414.470588,77 419.852941,81.7643979 420.929412,88.3612565 L436,147 L375,147 L390.070588,88.3612565 C391.505882,81.7643979 396.888235,77 403.347059,77 Z" id="Path" fill="#7CB342"></path>
                <polygon id="Path" fill="#7CB342" points="370 141 441 141 441 400 370 400"></polygon>
                <polygon id="Path" fill="#9DCE2E" points="370 162 441 162 441 380 370 380"></polygon>
                <path d="M370,341.994264 L441,341.994264 L441,350.621415 L370,350.621415 L370,341.994264 Z M370,356.372849 L441,356.372849 L441,365 L370,365 L370,356.372849 Z M370,177 L441,177 L441,185.627151 L370,185.627151 L370,177 Z M370,191.378585 L441,191.378585 L441,200.005736 L370,200.005736 L370,191.378585 Z M393.666667,233.435946 L417.333333,233.435946 C424.39801,233.435946 430.049751,239.18738 430.049751,246.376673 L430.049751,309.642447 C430.049751,316.83174 424.39801,322.583174 417.333333,322.583174 L393.666667,322.583174 C386.60199,322.583174 380.950249,316.83174 380.950249,309.642447 L380.950249,246.376673 C380.950249,239.18738 386.60199,233.435946 393.666667,233.435946 Z" id="Shape" fill="#7CB342" fill-rule="nonzero"></path>
                <path d="M134.347059,77 L139.011765,77 C145.470588,77 150.852941,81.7643979 151.929412,88.3612565 L167,147 L106,147 L121.070588,88.3612565 C122.505882,81.7643979 127.888235,77 134.347059,77 Z" id="Path" fill="#E53935"></path>
                <polygon id="Path" fill="#E53935" points="102 141 173 141 173 400 102 400"></polygon>
                <polygon id="Path" fill="#F94B4B" points="102 162 173 162 173 380 102 380"></polygon>
                <path d="M102,341.994264 L173,341.994264 L173,350.621415 L102,350.621415 L102,341.994264 Z M102,356.372849 L173,356.372849 L173,365 L102,365 L102,356.372849 Z M102,177 L173,177 L173,185.627151 L102,185.627151 L102,177 Z M102,191.378585 L173,191.378585 L173,200.005736 L102,200.005736 L102,191.378585 Z M125.666667,233.435946 L149.333333,233.435946 C156.39801,233.435946 162.049751,239.18738 162.049751,246.376673 L162.049751,309.642447 C162.049751,316.83174 156.39801,322.583174 149.333333,322.583174 L125.666667,322.583174 C118.60199,322.583174 112.950249,316.83174 112.950249,309.642447 L112.950249,246.376673 C112.950249,239.18738 118.60199,233.435946 125.666667,233.435946 Z" id="Shape" fill="#E53935" fill-rule="nonzero"></path>
                <polygon id="Path" fill="#FB8C00" points="259 399.91729 188.281467 400 188 141.08271 258.718533 141"></polygon>
                <polygon id="Path" fill="#FC9F42" points="259 379.917018 188.23588 380 188 162.082982 258.76412 162"></polygon>
                <path d="M258.964699,351.095831 L188.01059,351.175649 L188.00353,342.468248 L258.957639,342.38843 L258.964699,351.095831 Z M259,365.920182 L188.045891,366 L188.035301,357.292599 L258.98941,357.212781 L259,365.920182 Z M258.964699,184.57041 L188.01059,184.653856 L188,175.946454 L258.954109,175.863009 L258.964699,184.57041 Z M258.99294,199.391132 L188.038831,199.474578 L188.03177,190.767177 L258.98588,190.687359 L258.99294,199.391132 Z M211.803162,232.733223 L235.454532,232.733223 C242.514642,232.733223 248.162731,238.538157 248.162731,245.794325 L248.162731,309.648601 C248.162731,316.904769 242.514642,322.709703 235.454532,322.709703 L211.803162,322.709703 C204.743052,322.709703 199.094963,316.904769 199.094963,309.648601 L199.094963,245.794325 C199.094963,238.538157 204.743052,232.733223 211.803162,232.733223 Z M221.334311,76 L225.923383,76 C232.277482,76 237.572565,80.716509 238.984587,86.8842516 L253.810819,144.933594 L193.799881,144.933594 L208.626112,86.8842516 C209.332124,80.716509 214.980212,76 221.334311,76 Z" id="Shape" fill="#FB8C00" fill-rule="nonzero"></path>
                <path d="M227.13997,139.975191 L263.227545,139.975191 L263.227545,366 L227.13997,366 L227.13997,139.975191 Z M138.561377,139.975191 L174.648952,139.975191 L174.648952,366 L138.561377,366 L138.561377,139.975191 Z M318.999251,139.975191 L355.086826,139.975191 L355.086826,366 L318.999251,366 L318.999251,139.975191 Z M409.035928,139.975191 L445.123503,139.975191 L445.123503,366 L409.035928,366 L409.035928,139.975191 Z M499.072605,139.975191 L535.16018,139.975191 L535.16018,366 L499.072605,366 L499.072605,139.975191 Z M582.912425,139.975191 L619,139.975191 L619,366 L582.912425,366 L582.912425,139.975191 Z M244.636976,139.975191 L255.937126,139.975191 L241.720808,86.9211367 C240.627246,80.3802258 234.79491,75.6562347 228.233533,76.0196186 L223.49476,76.0196186 C222.401198,76.0196186 221.307635,76.3830025 220.214072,76.3830025 C225.317365,77.8365383 229.327096,81.8337616 230.056138,86.9211367 L244.636976,139.975191 Z M336.131737,139.975191 L347.431886,139.975191 L333.215569,86.9211367 C332.122006,80.3802258 326.289671,75.6562347 319.728293,76.0196186 L314.989521,76.0196186 C313.895958,76.0196186 312.802395,76.3830025 311.708832,76.3830025 C316.812126,77.8365383 320.821856,81.8337616 321.550898,86.9211367 L336.131737,139.975191 Z M426.168413,139.975191 L437.468563,139.975191 L423.252246,86.9211367 C422.158683,80.3802258 416.326347,75.6562347 409.76497,76.0196186 L405.026198,76.0196186 C403.932635,76.0196186 402.839072,76.3830025 401.745509,76.3830025 C406.848802,77.8365383 410.858533,81.8337616 411.587575,86.9211367 L426.168413,139.975191 Z M516.20509,139.975191 L527.50524,139.975191 L513.288922,86.9211367 C512.195359,80.3802258 506.363024,75.6562347 499.801647,76.0196186 L495.062874,76.0196186 C493.969311,76.0196186 492.875749,76.3830025 491.782186,76.3830025 C496.885479,77.8365383 500.89521,81.8337616 501.624251,86.9211367 L516.20509,139.975191 Z M601.138473,139.975191 L612.438623,139.975191 L598.222305,86.9211367 C597.128743,80.3802258 591.296407,75.6562347 584.73503,76.0196186 L579.996257,76.0196186 C578.902695,76.0196186 577.809132,76.3830025 576.715569,76.3830025 C581.818862,77.8365383 585.828593,81.8337616 586.557635,86.9211367 L601.138473,139.975191 Z M156.422904,139.975191 L167.723054,139.975191 L153.506737,86.9211367 C152.413174,80.3802258 146.580838,75.6562347 140.019461,76.0196186 L135.280689,76.0196186 C134.187126,76.0196186 133.093563,76.3830025 132,76.3830025 C137.103293,77.8365383 141.113024,81.8337616 141.842066,86.9211367 L156.422904,139.975191 Z" id="Shape" fill="#000000" fill-rule="nonzero" opacity="0.1"></path>
                <polygon id="Path" fill="#F9CE1D" points="487 405 502 405 502 532 487 532"></polygon>
                <path d="M553.960526,187 C543.773684,268.104651 455.002632,331.546512 346.949342,331.546512 C238.896053,331.546512 150.488816,268.104651 139.938158,187 L81,187 L81,745 L634,745 L634,187 L553.960526,187 Z" id="Path" fill="#000000" opacity="0.1"></path>
                <polygon id="Path" fill="#9DCA3B" points="81 704 634 704 634 760 81 760"></polygon>
                <path d="M553.960526,197 C543.773684,278.104651 455.002632,341.546512 346.949342,341.546512 C238.896053,341.546512 150.488816,278.104651 140.301974,197 L81,197 L81,755 L634,755 L634,197 L553.960526,197 Z" id="Path" fill="#FFD400"></path>
                <polygon id="Path" fill="#66A622" points="634 664 720 664 720 760 634 760"></polygon>
                <polygon id="Path" fill="#7CB342" points="81 664 634 664 634 760 81 760"></polygon>
                <polygon id="Path" fill="#000000" opacity="0.1" points="320 593 400 593 400 761 320 761"></polygon>
                <polygon id="Path" fill="#000000" opacity="0.1" points="320 593 400 593 400 761 320 761"></polygon>
                <polygon id="Path" fill="#FFFFFF" points="320 593 400 593 400 761 320 761"></polygon>
                <path d="M330,681 L335,681 L335,698.5 C335,699.880712 333.880712,701 332.5,701 L332.5,701 C331.119288,701 330,699.880712 330,698.5 L330,681 Z" id="Path" fill="#F9CE1D"></path>
                <g id="Group-9" transform="translate(188.000000, 604.000000)">
                    <polyline id="Path" fill="#F8E71C" points="71 91 71 0 0 0 0 91"></polyline>
                    <polygon id="Path" fill="#393030" points="0 40.4444444 71 40.4444444 71 45.5 0 45.5"></polygon>
                    <polygon id="Path" fill="#393030" points="35.5 0 40.5714286 0 40.5714286 85.9444444 35.5 85.9444444"></polygon>
                    <rect id="Rectangle" stroke="#393030" x="0.5" y="0.5" width="70" height="84.9444444"></rect>
                </g>
                <g id="Group-9-Copy" transform="translate(472.000000, 604.000000)">
                    <polyline id="Path" fill="#F8E71C" points="71 91 71 0 0 0 0 91"></polyline>
                    <polygon id="Path" fill="#393030" points="0 40.4444444 71 40.4444444 71 45.5 0 45.5"></polygon>
                    <polygon id="Path" fill="#393030" points="35.5 0 40.5714286 0 40.5714286 85.9444444 35.5 85.9444444"></polygon>
                    <rect id="Rectangle" stroke="#393030" x="0.5" y="0.5" width="70" height="84.9444444"></rect>
                </g>
                <polygon id="Path" fill="#F57C00" points="172 690 268 690 268 701 172 701"></polygon>
                <polygon id="Path-Copy" fill="#F57C00" points="457 690 553 690 553 701 457 701"></polygon>
            </g>
        </g>
    </g>
</svg>