<?xml version="1.0" encoding="UTF-8"?>
<svg width="180px" height="154px" viewBox="0 0 180 154" version="1.1" xmlns="http://www.w3.org/2000/svg" xmlns:xlink="http://www.w3.org/1999/xlink">
    <!-- Generator: Sketch 52.6 (67491) - http://www.bohemiancoding.com/sketch -->
    <title>seasonofgiving</title>
    <desc>Created with Sketch.</desc>
    <g id="Page-2" stroke="none" stroke-width="1" fill="none" fill-rule="evenodd">
        <g id="Pixel-2" transform="translate(-12.000000, -923.000000)">
            <g id="seasonofgiving" transform="translate(12.000000, 923.000000)">
                <path d="M141.856295,119 C111.822017,119 33,52.999403 33,34.1014925 C33,15.2035821 57.3579433,0 87.4640738,0 C117.570204,0 142,15.2746269 142,34.1014925 L141.856295,119 Z" id="Path" fill="#D7C17D"></path>
                <ellipse id="Oval" fill="#231F20" opacity="0.2" cx="90" cy="148" rx="90" ry="6"></ellipse>
                <path d="M122.423026,39 C120.415132,54.9883721 106.718421,67.494832 85.4921053,67.494832 C64.2657895,67.494832 46.6967105,54.9883721 44.6888158,39 L33,39 L33,149 L142,149 L142,39 L122.423026,39 Z" id="Path" fill="#FFB300"></path>
                <polygon id="Path" fill="#D7C17D" points="17 30 125 30 125 92 17 92"></polygon>
                <g id="Group" opacity="0.1" transform="translate(23.000000, 18.000000)" fill="#000000">
                    <path d="M50.3555556,13.7021739 L48.9965278,13.7021739 L46.2069444,3.22826087 C46.0638889,2.29565217 45.3486111,1.50652174 44.4902778,1.21956522 C44.2041667,1.14782609 43.9180556,1.07608696 43.5604167,1.07608696 L42.6305556,1.07608696 C42.4159722,1.07608696 42.2013889,1.14782609 41.9868056,1.14782609 C40.9854167,1.43478261 40.1986111,2.22391304 40.0555556,3.22826087 L37.2659722,13.7021739 L35.9069444,13.7021739 L35.9069444,65.3543478 L50.2840278,65.3543478 L50.2840278,58.323913 L50.3555556,58.323913 L50.3555556,13.7021739 Z" id="Path"></path>
                    <path d="M102.35625,24.6065217 L102.35625,13.7021739 L100.997222,13.7021739 L100.854167,13.1282609 L98.2791667,3.22826087 C98.0645833,2.15217391 97.20625,1.29130435 96.1333333,1.07608696 C95.9902778,1.07608696 95.7756944,1.00434783 95.6326389,1.00434783 L94.7027778,1.00434783 C94.5597222,1.00434783 94.4166667,1.00434783 94.2736111,1.07608696 L93.9875,1.07608696 C92.9861111,1.36304348 92.2708333,2.15217391 92.05625,3.15652174 L89.2666667,13.6304348 L87.9076389,13.6304348 L87.9076389,65.1391304 L102.284722,65.1391304 L102.284722,25.1804348 L102.35625,24.6065217 Z" id="Path"></path>
                    <path d="M84.33125,13.7021739 L81.6131944,3.22826087 C81.3986111,1.93695652 80.3256944,1.00434783 79.0381944,1.00434783 L77.7506944,1.00434783 C77.6791667,1.00434783 77.6076389,1.00434783 77.5361111,1.07608696 L77.3930556,1.07608696 C76.3916667,1.36304348 75.6763889,2.15217391 75.4618056,3.15652174 L72.6722222,13.6304348 L71.3131944,13.6304348 L71.3131944,65.2826087 L85.6902778,65.2826087 L85.6902778,58.2521739 L85.9048611,58.2521739 L85.9048611,13.7021739 L84.33125,13.7021739 Z" id="Path"></path>
                    <path d="M15.0923611,58.323913 L15.0923611,13.6304348 L13.7333333,13.6304348 L10.94375,3.15652174 C10.7291667,2.00869565 9.87083333,1.21956522 8.79791667,1.00434783 C8.65486111,1.00434783 8.44027778,0.932608696 8.29722222,0.932608696 L7.36736111,0.932608696 C7.15277778,0.932608696 6.93819444,1.00434783 6.72361111,1.00434783 C5.72222222,1.29130435 5.00694444,2.08043478 4.79236111,3.08478261 L2.14583333,13.7021739 L0.786805556,13.7021739 L0.786805556,65.4978261 L15.1638889,65.4978261 L15.0923611,58.323913 Z" id="Path"></path>
                    <path d="M32.4020833,13.7021739 L30.9715278,13.7021739 L28.1819444,3.22826087 C28.1104167,2.94130435 28.0388889,2.5826087 27.8243056,2.3673913 C27.68125,2.08043478 27.4666667,1.86521739 27.2520833,1.65 C26.8229167,1.29130435 26.1791667,1.00434783 25.5354167,1.00434783 L24.2479167,1.00434783 C24.1763889,1.00434783 24.0333333,1.07608696 23.9618056,1.07608696 C22.9604167,1.36304348 22.1736111,2.15217391 22.0305556,3.15652174 L19.3125,13.6304348 L17.9534722,13.6304348 L17.9534722,65.2826087 L32.3305556,65.2826087 L32.3305556,13.7021739 L32.4020833,13.7021739 Z" id="Path"></path>
                    <path d="M66.6638889,13.7021739 L63.8743056,3.22826087 C63.6597222,1.93695652 62.5152778,1.00434783 61.2277778,1.07608696 L60.2979167,1.07608696 C60.1548611,1.07608696 60.0118056,1.07608696 59.86875,1.14782609 C59.7972222,1.14782609 59.7256944,1.14782609 59.6541667,1.21956522 C58.6527778,1.43478261 57.8659722,2.29565217 57.7229167,3.3 L54.9333333,13.773913 L53.5743056,13.773913 L53.5743056,65.426087 L67.9513889,65.426087 L67.9513889,58.3956522 L68.0944444,58.3956522 L68.0944444,13.7021739 L66.6638889,13.7021739 Z" id="Path"></path>
                </g>
                <path d="M61.5764706,15 L62.4941176,15 C63.7647059,15 64.8235294,15.9528796 65.0352941,17.2722513 L68,29 L56,29 L58.9647059,17.2722513 C59.2470588,15.9528796 60.3058824,15 61.5764706,15 Z" id="Path" fill="#F9CE1D"></path>
                <polygon id="Path" fill="#F9CE1D" points="55 28 69 28 69 79 55 79"></polygon>
                <polygon id="Path" fill="#FFE36C" points="55 32 69 32 69 75 55 75"></polygon>
                <path d="M55,67.4722753 L69,67.4722753 L69,69.1701721 L55,69.1701721 L55,67.4722753 Z M55,70.3021033 L69,70.3021033 L69,72 L55,72 L55,70.3021033 Z M55,35 L69,35 L69,36.6978967 L55,36.6978967 L55,35 Z M55,37.8298279 L69,37.8298279 L69,39.5277247 L55,39.5277247 L55,37.8298279 Z M59.6666667,46.1070746 L64.3333333,46.1070746 C65.7263682,46.1070746 66.840796,47.2390057 66.840796,48.6539197 L66.840796,61.1051625 C66.840796,62.5200765 65.7263682,63.6520076 64.3333333,63.6520076 L59.6666667,63.6520076 C58.2736318,63.6520076 57.159204,62.5200765 57.159204,61.1051625 L57.159204,48.6539197 C57.159204,47.2390057 58.2736318,46.1070746 59.6666667,46.1070746 Z" id="Shape" fill="#F9CE1D" fill-rule="nonzero"></path>
                <path d="M113.576471,15 L114.494118,15 C115.764706,15 116.823529,15.9528796 117.035294,17.2722513 L120,29 L108,29 L110.964706,17.2722513 C111.247059,15.9528796 112.305882,15 113.576471,15 Z" id="Path" fill="#5E35B1"></path>
                <polygon id="Path" fill="#5E35B1" points="120.970114 79 107 78.9915014 107.029886 28 121 28.0084986"></polygon>
                <polygon id="Path" fill="#9575CD" points="120.975664 75 107 74.9914587 107.024336 32 121 32.0085413"></polygon>
                <path d="M120.961806,69.1153332 L107.003472,69.1068593 L107.004861,67.4120734 L120.963194,67.4205474 L120.961806,69.1153332 Z M120.958333,72 L107,71.9915261 L107.001389,70.2967402 L120.959722,70.3052141 L120.958333,72 Z M121,36.7032598 L107.041667,36.6947859 L107.041667,35 L121,35.0120047 L121,36.7032598 Z M120.996528,39.5879266 L107.038194,39.580865 L107.038194,37.8860791 L120.996528,37.8931407 L120.996528,39.5879266 Z M111.725694,46.0577716 L116.378472,46.0577716 C117.767361,46.0577716 118.878472,47.1876288 118.878472,48.5999504 L118.878472,61.02838 C118.878472,62.4407016 117.767361,63.5705588 116.378472,63.5705588 L111.725694,63.5705588 C110.336806,63.5705588 109.225694,62.4407016 109.225694,61.02838 L109.225694,48.5999504 C109.15625,47.1876288 110.336806,46.0577716 111.725694,46.0577716 Z" id="Shape" fill="#5E35B1" fill-rule="nonzero"></path>
                <path d="M97.5764706,15 L98.4941176,15 C99.7647059,15 100.823529,15.9528796 101.035294,17.2722513 L104,29 L92,29 L94.9647059,17.2722513 C95.2470588,15.9528796 96.3058824,15 97.5764706,15 Z" id="Path" fill="#29B6F6"></path>
                <polygon id="Path" fill="#29B6F6" points="104.930693 79 91 78.9801744 91.0693069 28 105 28.0198256"></polygon>
                <polygon id="Path" fill="#4AD0FF" points="104.942427 75 91 74.9800755 91.0575732 32 105 32.0199245"></polygon>
                <path d="M104.979146,69.1155629 L91.0069513,69.0957968 L91.0097319,67.4015607 L104.981927,67.4213268 L104.979146,69.1155629 Z M104.972195,72 L91,71.9802339 L91.0013903,70.2859977 L104.973585,70.3050579 L104.972195,72 Z M104.997915,36.7140023 L91.02572,36.6942362 L91.0278054,35 L105,35.0197661 L104.997915,36.7140023 Z M104.989573,39.5977334 L91.0173784,39.5786732 L91.0201589,37.8844371 L104.992354,37.9034972 L104.989573,39.5977334 Z M95.6747766,46.0711274 L100.332175,46.0711274 C101.722443,46.0711274 102.834657,47.2006182 102.834657,48.6124816 L102.834657,61.0368802 C102.834657,62.4487436 101.722443,63.5782344 100.332175,63.5782344 L95.6747766,63.5782344 C94.2845084,63.5782344 93.1722939,62.4487436 93.1722939,61.0368802 L93.1722939,48.6124816 C93.1722939,47.2006182 94.3540218,46.0711274 95.6747766,46.0711274 Z" id="Shape" fill="#29B6F6" fill-rule="nonzero"></path>
                <path d="M79.5764706,15 L80.4941176,15 C81.7647059,15 82.8235294,15.9528796 83.0352941,17.2722513 L86,29 L74,29 L76.9647059,17.2722513 C77.2470588,15.9528796 78.3058824,15 79.5764706,15 Z" id="Path" fill="#7CB342"></path>
                <polygon id="Path" fill="#7CB342" points="73 28 87 28 87 79 73 79"></polygon>
                <polygon id="Path" fill="#9DCE2E" points="73 32 87 32 87 75 73 75"></polygon>
                <path d="M73,67.4722753 L87,67.4722753 L87,69.1701721 L73,69.1701721 L73,67.4722753 Z M73,70.3021033 L87,70.3021033 L87,72 L73,72 L73,70.3021033 Z M73,35 L87,35 L87,36.6978967 L73,36.6978967 L73,35 Z M73,37.8298279 L87,37.8298279 L87,39.5277247 L73,39.5277247 L73,37.8298279 Z M77.6666667,46.1070746 L82.3333333,46.1070746 C83.7263682,46.1070746 84.840796,47.2390057 84.840796,48.6539197 L84.840796,61.1051625 C84.840796,62.5200765 83.7263682,63.6520076 82.3333333,63.6520076 L77.6666667,63.6520076 C76.2736318,63.6520076 75.159204,62.5200765 75.159204,61.1051625 L75.159204,48.6539197 C75.159204,47.2390057 76.2736318,46.1070746 77.6666667,46.1070746 Z" id="Shape" fill="#7CB342" fill-rule="nonzero"></path>
                <path d="M26.5764706,15 L27.4941176,15 C28.7647059,15 29.8235294,15.9528796 30.0352941,17.2722513 L33,29 L21,29 L23.9647059,17.2722513 C24.2470588,15.9528796 25.3058824,15 26.5764706,15 Z" id="Path" fill="#E53935"></path>
                <polygon id="Path" fill="#E53935" points="20 28 34 28 34 79 20 79"></polygon>
                <polygon id="Path" fill="#F94B4B" points="20 32 34 32 34 75 20 75"></polygon>
                <path d="M20,67.4722753 L34,67.4722753 L34,69.1701721 L20,69.1701721 L20,67.4722753 Z M20,70.3021033 L34,70.3021033 L34,72 L20,72 L20,70.3021033 Z M20,35 L34,35 L34,36.6978967 L20,36.6978967 L20,35 Z M20,37.8298279 L34,37.8298279 L34,39.5277247 L20,39.5277247 L20,37.8298279 Z M24.6666667,46.1070746 L29.3333333,46.1070746 C30.7263682,46.1070746 31.840796,47.2390057 31.840796,48.6539197 L31.840796,61.1051625 C31.840796,62.5200765 30.7263682,63.6520076 29.3333333,63.6520076 L24.6666667,63.6520076 C23.2736318,63.6520076 22.159204,62.5200765 22.159204,61.1051625 L22.159204,48.6539197 C22.159204,47.2390057 23.2736318,46.1070746 24.6666667,46.1070746 Z" id="Shape" fill="#E53935" fill-rule="nonzero"></path>
                <polygon id="Path" fill="#FB8C00" points="51 78.9837135 37.0555005 79 37 28.0162865 50.9444995 28"></polygon>
                <polygon id="Path" fill="#FC9F42" points="51 74.9836321 37.0465116 75 37 32.0163679 50.9534884 32"></polygon>
                <path d="M50.9930393,69.07056 L37.0020882,69.0862483 L37.0006961,67.3747936 L50.9916472,67.3591052 L50.9930393,69.07056 Z M51,71.9843117 L37.0090489,72 L37.0069607,70.2885453 L50.9979118,70.2728569 L51,71.9843117 Z M50.9930393,36.3397012 L37.0020882,36.3561027 L37,34.644648 L50.9909511,34.6282465 L50.9930393,36.3397012 Z M50.9986079,39.2527398 L37.0076567,39.2691413 L37.0062646,37.5576865 L50.9972157,37.5419982 L50.9986079,39.2527398 Z M41.6935813,45.8061853 L46.3572316,45.8061853 C47.7493661,45.8061853 48.8630736,46.9471551 48.8630736,48.3733674 L48.8630736,60.9240354 C48.8630736,62.3502477 47.7493661,63.4912175 46.3572316,63.4912175 L41.6935813,63.4912175 C40.3014468,63.4912175 39.1877393,62.3502477 39.1877393,60.9240354 L39.1877393,48.3733674 C39.1877393,46.9471551 40.3014468,45.8061853 41.6935813,45.8061853 Z M43.5729628,15 L44.4778501,15 C45.7307711,15 46.774872,15.927038 47.0532989,17.1393184 L49.9767812,28.5490167 L38.1436384,28.5490167 L41.0671208,17.1393184 C41.2063342,15.927038 42.3200418,15 43.5729628,15 Z" id="Shape" fill="#FB8C00" fill-rule="nonzero"></path>
                <path d="M44.754491,27.5744342 L51.8682635,27.5744342 L51.8682635,72 L44.754491,72 L44.754491,27.5744342 Z M27.2934132,27.5744342 L34.4071856,27.5744342 L34.4071856,72 L27.2934132,72 L27.2934132,27.5744342 Z M62.8622754,27.5744342 L69.9760479,27.5744342 L69.9760479,72 L62.8622754,72 L62.8622754,27.5744342 Z M80.6107784,27.5744342 L87.7245509,27.5744342 L87.7245509,72 L80.6107784,72 L80.6107784,27.5744342 Z M98.3592814,27.5744342 L105.473054,27.5744342 L105.473054,72 L98.3592814,72 L98.3592814,27.5744342 Z M114.886228,27.5744342 L122,27.5744342 L122,72 L114.886228,72 L114.886228,27.5744342 Z M48.2035928,27.5744342 L50.4311377,27.5744342 L47.6287425,17.1465682 C47.4131737,15.8609409 46.2634731,14.9324323 44.9700599,15.0038561 L44.0359281,15.0038561 C43.8203593,15.0038561 43.6047904,15.0752798 43.3892216,15.0752798 C44.3952096,15.3609748 45.1856287,16.1466359 45.3293413,17.1465682 L48.2035928,27.5744342 Z M66.239521,27.5744342 L68.4670659,27.5744342 L65.6646707,17.1465682 C65.4491018,15.8609409 64.2994012,14.9324323 63.005988,15.0038561 L62.0718563,15.0038561 C61.8562874,15.0038561 61.6407186,15.0752798 61.4251497,15.0752798 C62.4311377,15.3609748 63.2215569,16.1466359 63.3652695,17.1465682 L66.239521,27.5744342 Z M83.988024,27.5744342 L86.2155689,27.5744342 L83.4131737,17.1465682 C83.1976048,15.8609409 82.0479042,14.9324323 80.754491,15.0038561 L79.8203593,15.0038561 C79.6047904,15.0038561 79.3892216,15.0752798 79.1736527,15.0752798 C80.1796407,15.3609748 80.9700599,16.1466359 81.1137725,17.1465682 L83.988024,27.5744342 Z M101.736527,27.5744342 L103.964072,27.5744342 L101.161677,17.1465682 C100.946108,15.8609409 99.7964072,14.9324323 98.502994,15.0038561 L97.5688623,15.0038561 C97.3532934,15.0038561 97.1377246,15.0752798 96.9221557,15.0752798 C97.9281437,15.3609748 98.7185629,16.1466359 98.8622754,17.1465682 L101.736527,27.5744342 Z M118.479042,27.5744342 L120.706587,27.5744342 L117.904192,17.1465682 C117.688623,15.8609409 116.538922,14.9324323 115.245509,15.0038561 L114.311377,15.0038561 C114.095808,15.0038561 113.88024,15.0752798 113.664671,15.0752798 C114.670659,15.3609748 115.461078,16.1466359 115.60479,17.1465682 L118.479042,27.5744342 Z M30.8143713,27.5744342 L33.0419162,27.5744342 L30.239521,17.1465682 C30.0239521,15.8609409 28.8742515,14.9324323 27.5808383,15.0038561 L26.6467066,15.0038561 C26.4311377,15.0038561 26.2155689,15.0752798 26,15.0752798 C27.005988,15.3609748 27.7964072,16.1466359 27.9401198,17.1465682 L30.8143713,27.5744342 Z" id="Shape" fill="#000000" fill-rule="nonzero" opacity="0.1"></path>
                <polygon id="Path" fill="#F9CE1D" points="96 80 99 80 99 105 96 105"></polygon>
                <path d="M109.223684,37 C107.215789,52.9883721 89.7184211,65.494832 68.4203947,65.494832 C47.1223684,65.494832 29.6967105,52.9883721 27.6171053,37 L16,37 L16,147 L125,147 L125,37 L109.223684,37 Z" id="Path" fill="#000000" opacity="0.1"></path>
                <polygon id="Path" fill="#9DCA3B" points="16 139 125 139 125 150 16 150"></polygon>
                <path d="M109.223684,39 C107.215789,54.9883721 89.7184211,67.494832 68.4203947,67.494832 C47.1223684,67.494832 29.6967105,54.9883721 27.6888158,39 L16,39 L16,149 L125,149 L125,39 L109.223684,39 Z" id="Path" fill="#FFD400"></path>
                <polygon id="Path" fill="#66A622" points="125 131 142 131 142 150 125 150"></polygon>
                <polygon id="Path" fill="#7CB342" points="16 131 125 131 125 150 16 150"></polygon>
                <polygon id="Path" fill="#000000" opacity="0.1" points="63 117 79 117 79 150 63 150"></polygon>
                <polygon id="Path" fill="#000000" opacity="0.1" points="63 117 79 117 79 150 63 150"></polygon>
                <polygon id="Path" fill="#FFFFFF" points="63 117 79 117 79 150 63 150"></polygon>
                <path d="M65,134 L66,134 L66,137.5 C66,137.776142 65.7761424,138 65.5,138 L65.5,138 C65.2238576,138 65,137.776142 65,137.5 L65,134 Z" id="Path" fill="#F9CE1D"></path>
                <g id="Group-9" transform="translate(37.000000, 119.000000)">
                    <polyline id="Path" fill="#F8E71C" points="14 18 14 0 0 0 0 18"></polyline>
                    <polygon id="Path" fill="#393030" points="0 8 14 8 14 9 0 9"></polygon>
                    <polygon id="Path" fill="#393030" points="7 0 8 0 8 17 7 17"></polygon>
                    <rect id="Rectangle" stroke="#393030" x="0.5" y="0.5" width="13" height="16"></rect>
                </g>
                <g id="Group-9-Copy" transform="translate(93.000000, 119.000000)">
                    <polyline id="Path" fill="#F8E71C" points="14 18 14 0 0 0 0 18"></polyline>
                    <polygon id="Path" fill="#393030" points="0 8 14 8 14 9 0 9"></polygon>
                    <polygon id="Path" fill="#393030" points="7 0 8 0 8 17 7 17"></polygon>
                    <rect id="Rectangle" stroke="#393030" x="0.5" y="0.5" width="13" height="16"></rect>
                </g>
                <polygon id="Path" fill="#F57C00" points="34 136 53 136 53 138 34 138"></polygon>
                <polygon id="Path-Copy" fill="#F57C00" points="90 136 109 136 109 138 90 138"></polygon>
            </g>
        </g>
    </g>
</svg>