<?xml version="1.0" encoding="UTF-8"?>
<svg width="201px" height="240px" viewBox="0 0 201 240" version="1.1" xmlns="http://www.w3.org/2000/svg" xmlns:xlink="http://www.w3.org/1999/xlink">
    <!-- Generator: Sketch 52.6 (67491) - http://www.bohemiancoding.com/sketch -->
    <title>racer</title>
    <desc>Created with Sketch.</desc>
    <g id="Page-2" stroke="none" stroke-width="1" fill="none" fill-rule="evenodd">
        <g id="Pixel-2" transform="translate(-27.000000, -450.000000)">
            <g id="racer" transform="translate(27.000000, 450.000000)">
                <g id="XMLID_3115_">
                    <ellipse id="XMLID_3232_" fill="#000000" opacity="0.1" cx="185.622951" cy="208.157466" rx="14.9377049" ry="1.63574661"></ellipse>
                    <polygon id="XMLID_3228_" fill="#736357" points="170.904918 8.26923077 175.408197 8.26923077 175.408197 208.157466 170.904918 208.157466"></polygon>
                    <path d="M179.801639,6.41538462 C179.801639,10.3411765 176.836066,14.0488688 173.101639,14.4850679 C169.367213,15.0303167 166.401639,12.1950226 166.401639,8.160181 C166.401639,4.12533937 169.367213,0.526696833 173.101639,0.0904977376 C176.836066,-0.345701357 179.801639,2.48959276 179.801639,6.41538462 Z" id="XMLID_3227_" fill="#736357"></path>
                    <ellipse id="XMLID_3198_" fill="#000000" opacity="0.1" cx="19.8803279" cy="238.146154" rx="14.9377049" ry="1.63574661"></ellipse>
                    <polygon id="XMLID_3168_" fill="#736357" points="5.16229508 38.2579186 9.66557377 38.2579186 9.66557377 238.146154 5.16229508 238.146154"></polygon>
                    <path d="M14.0590164,36.4040724 C14.0590164,40.3298643 11.0934426,44.0375566 7.35901639,44.4737557 C3.62459016,45.0190045 0.659016393,42.1837104 0.659016393,38.1488688 C0.659016393,34.2230769 3.62459016,30.5153846 7.35901639,30.0791855 C11.0934426,29.6429864 14.0590164,32.4782805 14.0590164,36.4040724 Z" id="XMLID_3155_" fill="#736357"></path>
                    <polygon id="XMLID_3154_" fill="#000000" points="9.99508197 47.9633484 22.4065574 45.7823529 22.4065574 62.139819 9.99508197 64.3208145"></polygon>
                    <polygon id="XMLID_3153_" fill="#FFFFFF" points="22.4065574 45.7823529 34.7081967 43.6013575 34.7081967 59.9588235 22.4065574 62.139819"></polygon>
                    <polygon id="XMLID_3152_" fill="#000000" points="34.7081967 43.6013575 47.1196721 41.3113122 47.1196721 57.6687783 34.7081967 59.9588235"></polygon>
                    <polygon id="XMLID_3151_" fill="#FFFFFF" points="47.1196721 41.3113122 59.4213115 39.1303167 59.4213115 55.4877828 47.1196721 57.6687783"></polygon>
                    <polygon id="XMLID_3150_" fill="#000000" points="59.4213115 39.1303167 71.8327869 36.9493213 71.8327869 53.3067873 59.4213115 55.4877828"></polygon>
                    <polygon id="XMLID_3149_" fill="#FFFFFF" points="71.8327869 36.9493213 84.1344262 34.659276 84.1344262 51.0167421 71.8327869 53.3067873"></polygon>
                    <polygon id="XMLID_3148_" fill="#000000" points="84.1344262 34.659276 96.5459016 32.4782805 96.5459016 48.8357466 84.1344262 51.0167421"></polygon>
                    <polygon id="XMLID_3147_" fill="#FFFFFF" points="96.5459016 32.4782805 108.847541 30.1882353 108.847541 46.5457014 96.5459016 48.8357466"></polygon>
                    <polygon id="XMLID_3146_" fill="#000000" points="108.847541 30.1882353 121.259016 28.0072398 121.259016 44.3647059 108.847541 46.5457014"></polygon>
                    <polygon id="XMLID_3145_" fill="#FFFFFF" points="121.259016 28.0072398 133.560656 25.8262443 133.560656 42.1837104 121.259016 44.3647059"></polygon>
                    <polygon id="XMLID_3144_" fill="#000000" points="133.560656 25.8262443 145.972131 23.5361991 145.972131 39.8936652 133.560656 42.1837104"></polygon>
                    <polygon id="XMLID_3143_" fill="#FFFFFF" points="145.972131 23.5361991 158.27377 21.3552036 158.27377 37.7126697 145.972131 39.8936652"></polygon>
                    <polygon id="XMLID_3142_" fill="#000000" points="158.27377 21.3552036 170.685246 19.1742081 170.685246 35.5316742 158.27377 37.7126697"></polygon>
                    <polygon id="XMLID_3141_" fill="#FFFFFF" points="9.99508197 64.3208145 22.4065574 62.139819 22.4065574 78.4972851 9.99508197 80.6782805"></polygon>
                    <polygon id="XMLID_3140_" fill="#000000" points="22.4065574 62.139819 34.7081967 59.9588235 34.7081967 76.3162896 22.4065574 78.4972851"></polygon>
                    <polygon id="XMLID_3139_" fill="#FFFFFF" points="34.7081967 59.9588235 47.1196721 57.6687783 47.1196721 74.0262443 34.7081967 76.3162896"></polygon>
                    <polygon id="XMLID_3138_" fill="#000000" points="47.1196721 57.6687783 59.4213115 55.4877828 59.4213115 71.8452489 47.1196721 74.0262443"></polygon>
                    <polygon id="XMLID_3137_" fill="#FFFFFF" points="59.4213115 55.4877828 71.8327869 53.3067873 71.8327869 69.5552036 59.4213115 71.8452489"></polygon>
                    <polygon id="XMLID_3136_" fill="#000000" points="71.8327869 53.3067873 84.1344262 51.0167421 84.1344262 67.3742081 71.8327869 69.5552036"></polygon>
                    <polygon id="XMLID_3135_" fill="#FFFFFF" points="84.1344262 51.0167421 96.5459016 48.8357466 96.5459016 65.1932127 84.1344262 67.3742081"></polygon>
                    <polygon id="XMLID_3134_" fill="#000000" points="96.5459016 48.8357466 108.847541 46.5457014 108.847541 62.9031674 96.5459016 65.1932127"></polygon>
                    <polygon id="XMLID_3133_" fill="#FFFFFF" points="108.847541 46.5457014 121.259016 44.3647059 121.259016 60.7221719 108.847541 62.9031674"></polygon>
                    <polygon id="XMLID_3132_" fill="#000000" points="121.259016 44.3647059 133.560656 42.1837104 133.560656 58.5411765 121.259016 60.7221719"></polygon>
                    <polygon id="XMLID_3131_" fill="#FFFFFF" points="133.560656 42.1837104 145.972131 39.8936652 145.972131 56.2511312 133.560656 58.5411765"></polygon>
                    <polygon id="XMLID_3130_" fill="#000000" points="145.972131 39.8936652 158.27377 37.7126697 158.27377 54.0701357 145.972131 56.2511312"></polygon>
                    <polygon id="XMLID_3129_" fill="#FFFFFF" points="158.27377 37.7126697 170.685246 35.5316742 170.685246 51.7800905 158.27377 54.0701357"></polygon>
                    <polygon id="XMLID_3128_" fill="#000000" points="9.99508197 80.6782805 22.4065574 78.4972851 22.4065574 94.8547511 9.99508197 97.0357466"></polygon>
                    <polygon id="XMLID_3127_" fill="#FFFFFF" points="22.4065574 78.4972851 34.7081967 76.3162896 34.7081967 92.5647059 22.4065574 94.8547511"></polygon>
                    <polygon id="XMLID_3126_" fill="#000000" points="34.7081967 76.3162896 47.1196721 74.0262443 47.1196721 90.3837104 34.7081967 92.5647059"></polygon>
                    <polygon id="XMLID_3125_" fill="#FFFFFF" points="47.1196721 74.0262443 59.4213115 71.8452489 59.4213115 88.2027149 47.1196721 90.3837104"></polygon>
                    <polygon id="XMLID_3124_" fill="#000000" points="59.4213115 71.8452489 71.8327869 69.5552036 71.8327869 85.9126697 59.4213115 88.2027149"></polygon>
                    <polygon id="XMLID_3123_" fill="#FFFFFF" points="71.8327869 69.5552036 84.1344262 67.3742081 84.1344262 83.7316742 71.8327869 85.9126697"></polygon>
                    <polygon id="XMLID_3122_" fill="#000000" points="84.1344262 67.3742081 96.5459016 65.1932127 96.5459016 81.5506787 84.1344262 83.7316742"></polygon>
                    <polygon id="XMLID_3121_" fill="#FFFFFF" points="96.5459016 65.1932127 108.847541 62.9031674 108.847541 79.2606335 96.5459016 81.5506787"></polygon>
                    <polygon id="XMLID_3120_" fill="#000000" points="108.847541 62.9031674 121.259016 60.7221719 121.259016 77.079638 108.847541 79.2606335"></polygon>
                    <polygon id="XMLID_3119_" fill="#FFFFFF" points="121.259016 60.7221719 133.560656 58.5411765 133.560656 74.7895928 121.259016 77.079638"></polygon>
                    <polygon id="XMLID_3118_" fill="#000000" points="133.560656 58.5411765 145.972131 56.2511312 145.972131 72.6085973 133.560656 74.7895928"></polygon>
                    <polygon id="XMLID_3117_" fill="#FFFFFF" points="145.972131 56.2511312 158.27377 54.0701357 158.27377 70.4276018 145.972131 72.6085973"></polygon>
                    <polygon id="XMLID_3116_" fill="#000000" points="158.27377 54.0701357 170.685246 51.7800905 170.685246 68.1375566 158.27377 70.4276018"></polygon>
                    <polygon id="Rectangle" fill="#FFFFFF" points="22 62 159 37.5 160 70.0797511 22 94.8"></polygon>
                </g>
            </g>
        </g>
    </g>
</svg>