<?xml version="1.0" encoding="UTF-8"?>
<svg width="225px" height="214px" viewBox="0 0 225 214" version="1.1" xmlns="http://www.w3.org/2000/svg" xmlns:xlink="http://www.w3.org/1999/xlink">
    <!-- Generator: Sketch 52.6 (67491) - http://www.bohemiancoding.com/sketch -->
    <title>Group 8</title>
    <desc>Created with Sketch.</desc>
    <g id="Page-2" stroke="none" stroke-width="1" fill="none" fill-rule="evenodd">
        <g id="Pixel-2" transform="translate(-169.000000, -1608.000000)">
            <g id="Group-8" transform="translate(169.000000, 1608.000000)">
                <g id="snowflake" transform="translate(0.000000, 130.000000)">
                    <ellipse id="XMLID_1404_" fill="#000000" opacity="0.1" cx="112.6" cy="75" rx="111.9" ry="9"></ellipse>
                    <polygon id="Path" fill="#2E2C29" points="48.1 19.6 204.8 19.6 204.8 76.6 48.1 76.6"></polygon>
                    <polygon id="Path" fill="#53504B" points="32.1 19.6 183.9 19.6 183.9 76.6 32.1 76.6"></polygon>
                    <polygon id="Path" fill="#3564E5" points="192.9 0.9 22.7 0.9 22.7 27.7 192.9 27.7"></polygon>
                    <g id="Group-2" transform="translate(148.000000, 36.000000)">
                        <polygon id="Path" fill="#CBB118" points="0.7 0.1 16 0.1 16 15.8 0.7 15.8"></polygon>
                        <polygon id="Path-Copy-4" fill="#53504B" points="7 -8.52651283e-14 9.4 -8.52651283e-14 9.4 15.7 7 15.7"></polygon>
                        <polygon id="Path-Copy-2" fill="#53504B" transform="translate(8.550000, 8.200000) rotate(90.000000) translate(-8.550000, -8.200000) " points="7.35 0.35 9.75 0.35 9.75 16.05 7.35 16.05"></polygon>
                    </g>
                    <g id="Group-2-Copy" transform="translate(56.500000, 36.000000)">
                        <polygon id="Path" fill="#CBB118" points="0.7 0.1 16 0.1 16 15.8 0.7 15.8"></polygon>
                        <polygon id="Path-Copy-4" fill="#53504B" points="7 -8.52651283e-14 9.4 -8.52651283e-14 9.4 15.7 7 15.7"></polygon>
                        <polygon id="Path-Copy-2" fill="#53504B" transform="translate(8.550000, 8.200000) rotate(90.000000) translate(-8.550000, -8.200000) " points="7.35 0.35 9.75 0.35 9.75 16.05 7.35 16.05"></polygon>
                    </g>
                    <polygon id="Path" fill="#000000" opacity="0.1" points="96.6 49 110.3 49 110.3 76.6 96.6 76.6"></polygon>
                    <polygon id="Path" fill="#999690" points="107 60.4 109 60.4 109 65.3 107 65.3"></polygon>
                    <polygon id="Path" fill="#000000" opacity="0.1" points="111.2 49 124.9 49 124.9 76.6 111.2 76.6"></polygon>
                    <path d="M31.8,27.7 L183.9,43.8 L183.9,27.7 M204.8,27.7 L204.8,42.1 L183.9,43.8 L183.9,27.7" id="Shape" fill="#000000" fill-rule="nonzero" opacity="0.2"></path>
                    <polygon id="Path" fill="#4041CF" points="192.9 0.9 205.476958 0.9 205.623548 27.7 192.9 27.7"></polygon>
                </g>
                <g id="Group-6" transform="translate(63.000000, 0.000000)">
                    <rect id="Rectangle-Copy-9" fill="#3B445A" x="5" y="68" width="99" height="62"></rect>
                    <rect id="Rectangle" fill="#222222" x="5" y="73" width="94" height="57"></rect>
                    <rect id="Rectangle" fill="#FFFFFF" x="13" y="107" width="79" height="3" rx="1.5"></rect>
                    <rect id="Rectangle-Copy-10" fill="#E5E5E5" x="13" y="93" width="79" height="3" rx="1.5"></rect>
                    <rect id="Rectangle-Copy-11" fill="#E5E5E5" x="13" y="79" width="19" height="3" rx="1.5"></rect>
                    <rect id="Rectangle-Copy-12" fill="#E5E5E5" x="43" y="79" width="19" height="3" rx="1.5"></rect>
                    <rect id="Rectangle-Copy-13" fill="#E5E5E5" x="73" y="79" width="19" height="3" rx="1.5"></rect>
                    <rect id="Rectangle" fill="#FFFFFF" x="33" y="109" width="3" height="15" rx="1.5"></rect>
                    <rect id="Rectangle-Copy-14" fill="#FFFFFF" x="67" y="109" width="3" height="15" rx="1.5"></rect>
                    <g id="Group-5" transform="translate(5.000000, 56.000000)">
                        <rect id="Rectangle-Copy-15" fill="#FFFFFF" x="0" y="0" width="99" height="12"></rect>
                        <rect id="Rectangle" fill="#E5E3DF" x="0" y="3" width="94" height="9"></rect>
                        <polygon id="Rectangle" fill="#222222" points="8 -5.68434189e-14 17.8199573 2.84217094e-13 21.3199573 12 11.5 12"></polygon>
                        <polygon id="Rectangle-Copy-16" fill="#222222" points="29 3.97903932e-13 38.8199573 7.38964445e-13 42.3199573 12 32.5 12"></polygon>
                        <polygon id="Rectangle-Copy-17" fill="#222222" points="50 3.97903932e-13 59.8199573 7.38964445e-13 63.3199573 12 53.5 12"></polygon>
                        <polygon id="Rectangle-Copy-18" fill="#222222" points="71 3.97903932e-13 80.8199573 7.38964445e-13 84.3199573 12 74.5 12"></polygon>
                    </g>
                    <g id="Group-5-Copy" transform="translate(45.868257, 29.946152) rotate(-30.000000) translate(-45.868257, -29.946152) translate(-3.631743, 23.946152)">
                        <rect id="Rectangle-Copy-15" fill="#FFFFFF" x="0" y="0" width="99" height="12"></rect>
                        <rect id="Rectangle" fill="#E5E3DF" x="0" y="3" width="94" height="9"></rect>
                        <polygon id="Rectangle" fill="#222222" points="8 -5.68434189e-14 17.8199573 2.84217094e-13 21.3199573 12 11.5 12"></polygon>
                        <polygon id="Rectangle-Copy-16" fill="#222222" points="29 3.97903932e-13 38.8199573 7.38964445e-13 42.3199573 12 32.5 12"></polygon>
                        <polygon id="Rectangle-Copy-17" fill="#222222" points="50 3.97903932e-13 59.8199573 7.38964445e-13 63.3199573 12 53.5 12"></polygon>
                        <polygon id="Rectangle-Copy-18" fill="#222222" points="71 3.97903932e-13 80.8199573 7.38964445e-13 84.3199573 12 74.5 12"></polygon>
                    </g>
                    <circle id="Oval" stroke="#222222" stroke-width="2" fill="#FFFFFF" cx="5" cy="57" r="5"></circle>
                </g>
                <g id="Group-7" transform="translate(104.000000, 136.000000)">
                    <path d="M6,0 L22,0 L22,8 C22,12.418278 18.418278,16 14,16 L14,16 C9.581722,16 6,12.418278 6,8 L6,0 Z" id="Rectangle-2" fill="#E76160"></path>
                    <path d="M15,2 L20,2 L20,9.16666667 C20,11.836043 17.836043,14 15.1666667,14 C15.1108854,14 15.0553248,13.9990551 15,13.9971803 L15,2 Z" id="Combined-Shape-Copy" fill="#B73D56"></path>
                    <path d="M12,9 L17,9 C16.6969697,10.3333333 15.8636364,11 14.5,11 C13.1363636,11 12.3030303,10.3333333 12,9 Z" id="Path-9-Copy" fill="#FFFFFF" transform="translate(14.500000, 10.000000) scale(1, -1) translate(-14.500000, -10.000000) "></path>
                    <ellipse id="Oval-Copy-6" fill="#FFFFFF" cx="16.5" cy="5" rx="1.5" ry="1"></ellipse>
                    <path d="M0,0 L16,0 L16,8 C16,12.418278 12.418278,16 8,16 L8,16 C3.581722,16 5.41083001e-16,12.418278 0,8 L0,0 Z" id="Rectangle-Copy-19" fill="#FFC876"></path>
                    <path d="M8,2 L13,2 L13,9.16666667 C13,11.836043 10.836043,14 8.16666667,14 C8.11088536,14 8.05532476,13.9990551 8,13.9971803 L8,2 Z" id="Combined-Shape" fill="#FF9065"></path>
                    <ellipse id="Oval" fill="#FFFFFF" cx="10.5" cy="5" rx="1.5" ry="1"></ellipse>
                    <ellipse id="Oval-Copy-5" fill="#FFFFFF" cx="4.5" cy="5" rx="1.5" ry="1"></ellipse>
                    <path d="M5,9 L10,9 C9.6969697,10.3333333 8.86363636,11 7.5,11 C6.13636364,11 5.3030303,10.3333333 5,9 Z" id="Path-9" fill="#FFFFFF"></path>
                </g>
            </g>
        </g>
    </g>
</svg>