<?xml version="1.0" encoding="UTF-8"?>
<svg width="249px" height="182px" viewBox="0 0 249 182" version="1.1" xmlns="http://www.w3.org/2000/svg" xmlns:xlink="http://www.w3.org/1999/xlink">
    <!-- Generator: Sketch 52.6 (67491) - http://www.bohemiancoding.com/sketch -->
    <title>santascanvas</title>
    <desc>Created with Sketch.</desc>
    <g id="Page-2" stroke="none" stroke-width="1" fill="none" fill-rule="evenodd">
        <g id="Pixel-2" transform="translate(-12.000000, -1203.000000)">
            <g id="santascanvas" transform="translate(12.000000, 1203.000000)">
                <path d="M199.27,54.38 L211.66,54.38 C223.25798,54.38 232.66,44.9779797 232.66,33.38 L232.66,15.84" id="Path" stroke="#4D4D4D" stroke-width="10" stroke-linecap="round"></path>
                <polygon id="Path" fill="#000000" points="218.43 18.64 232.67 4.4 246.92 18.64"></polygon>
                <ellipse id="Oval" fill="#231F20" opacity="0.2" style="mix-blend-mode: multiply;" cx="124.61" cy="173.85" rx="124.33" ry="7.94"></ellipse>
                <path d="M156.8,15.84 L103,15.84 L104.37,80.84 L36.53,80.84 L57.98,173.84 L160.12,173.84 C192.45,173.84 235.95,142.42 235.95,92.27 C235.95,42.12 194,15.84 156.8,15.84 Z" id="Path" fill="#845930"></path>
                <path d="M103,15.84 C140.16,15.84 182.15,42.12 182.15,92.28 C182.15,142.44 138.65,173.85 106.32,173.85 L58,173.85 C33.24,173.85 13.28,135.48 13.28,113.12 C13.28,90.76 24.76,80.8 36.55,80.8 C56.1,80.8 56.08,98.62 73.48,98.62 C87.3,98.62 92.74,88.62 92.74,80.62 C92.74,58.26 65.15,60.41 65.15,40.62 C65.13,24 78.93,15.84 103,15.84 Z" id="Path" fill="#B07644"></path>
                <path d="M58,173.85 L58,146.58 C58.0055212,133.235183 68.8251819,122.419999 82.17,122.42 C95.5131996,122.42 106.33,133.2368 106.33,146.58 L106.33,173.85 L58,173.85 Z" id="Path" fill="#845930"></path>
                <circle id="Oval" fill="#85837D" cx="64.02" cy="153.29" r="3.17"></circle>
                <circle id="Oval" fill="#71BDDE" cx="209.05" cy="92.28" r="13.45"></circle>
                <path d="M195.6,92.28 L222.5,92.28" id="Path" stroke="#FFFFFF" stroke-width="2"></path>
                <path d="M209.05,78.82 L209.05,105.73" id="Path" stroke="#FFFFFF" stroke-width="2"></path>
                <circle id="Oval" fill="#71BDDE" cx="101.76" cy="40.92" r="13.45"></circle>
                <path d="M88.31,40.92 L115.21,40.92" id="Path" stroke="#FFFFFF" stroke-width="2"></path>
                <path d="M101.76,27.47 L101.76,54.38" id="Path" stroke="#FFFFFF" stroke-width="2"></path>
                <circle id="Oval" fill="#71BDDE" cx="38.15" cy="114.33" r="13.45"></circle>
                <path d="M24.7,114.33 L51.6,114.33" id="Path" stroke="#FFFFFF" stroke-width="2"></path>
                <path d="M38.15,100.88 L38.15,127.78" id="Path" stroke="#FFFFFF" stroke-width="2"></path>
                <circle id="Oval" fill="#EF6522" cx="140.69" cy="60.55" r="16.53"></circle>
                <circle id="Oval" fill="#008844" cx="131.83" cy="139.92" r="16.53"></circle>
                <path d="M139.7,146.53 C129.35,133.07 137.16,115.97 127.21,103.03 C123.09,97.67 117.4,94.1 111.35,94.17 C111.06909,91.5654809 109.973791,89.1159309 108.22,87.17 L102.47,80.81 L74.62,80.81 L88.62,102.27 C90.0518136,104.484968 92.154099,106.184315 94.62,107.12 C89.36,125.24 118.1,149.63 139.7,146.53 Z" id="Path" fill="#231F20" opacity="0.2" style="mix-blend-mode: multiply;"></path>
                <circle id="Oval" fill="#FFC805" cx="153.98" cy="102.44" r="18.48"></circle>
                <path d="M32,1.33 C33.6814737,0.0432818035 36.068638,0.260692032 37.49,1.83 L108.25,80.16 C110.574892,82.7319079 111.718965,86.1585032 111.405595,89.6112751 C111.092224,93.064047 109.349938,96.2286791 106.6,98.34 C103.85219,100.456987 100.344283,101.328412 96.9252445,100.743376 C93.5062059,100.158341 90.4876091,98.1701587 88.6,95.26 L31,6.77 C29.8555538,4.97493262 30.2919901,2.60071883 32,1.33 Z" id="Path" fill="#000000"></path>
                <path d="M139.7,139.53 C114.13,143.2 78.56,108.35 101.18,90.95 C110.64,83.68 120.81,87.72 127.18,96.03 C137.16,109 129.35,126.07 139.7,139.53 Z" id="Path" fill="#FFFFFF"></path>
                <path d="M139.7,139.53 C114.13,143.2 78.56,108.35 101.18,90.95 C110.64,83.68 120.81,87.72 127.18,96.03 C137.16,109 129.35,126.07 139.7,139.53 Z" id="Path" fill="#FFFFFF"></path>
                <path d="M129.45,134.45 C113.56,125.53 105.65,115.28 102.89,103.92" id="Path" stroke="#E6E6E6" stroke-width="2" stroke-linecap="round"></path>
                <path d="M126.53,120.92 C124.61,106.54 112.53,107.3 106.31,96.37" id="Path" stroke="#E6E6E6" stroke-width="2" stroke-linecap="round"></path>
                <path d="M139.7,139.53 C134.95,133.35 137.16,125.28 136.16,119.19 C135.71,116.45 132.57,111.56 127.8,112.77 C121.66,114.32 126.08,126.1 118.44,122.86 C110.56,119.53 104.62,128.43 111.44,133.74 C120.29,140.66 129.45,142.32 139.7,139.53 Z" id="Path" fill="#00A351"></path>
                <path d="M113.21,130.57 C118.612701,134.377105 125.103441,136.331344 131.71,136.14" id="Path" stroke="#008844" stroke-width="2" stroke-linecap="round"></path>
                <path d="M30.06,114.33 C30.0601389,107.934944 34.5631816,102.424257 40.83,101.15 C39.948317,100.968153 39.0502376,100.877675 38.15,100.88 C30.7217701,100.88 24.7,106.90177 24.7,114.33 C24.7,121.75823 30.7217701,127.78 38.15,127.78 C39.0496606,127.780645 39.9472406,127.693567 40.83,127.52 C34.5637613,126.237942 30.0631457,120.726046 30.06,114.33 Z" id="Path" fill="#231F20" opacity="0.2" style="mix-blend-mode: multiply;"></path>
                <path d="M217.13,92.28 C217.131702,85.8856381 212.634393,80.3726727 206.37,79.09 C207.25243,78.9130762 208.150013,78.8226481 209.05,78.82 C216.338166,79.0187086 222.143155,84.9841257 222.143155,92.275 C222.143155,99.5658743 216.338166,105.531291 209.05,105.73 C208.150013,105.727352 207.25243,105.636924 206.37,105.46 C212.632843,104.181603 217.130829,98.6719873 217.13,92.28 Z" id="Path" fill="#231F20" opacity="0.2" style="mix-blend-mode: multiply;"></path>
                <path d="M93.67,40.92 C93.6701389,34.5249439 98.1731816,29.0142565 104.44,27.74 C103.558317,27.5581534 102.660238,27.4676752 101.76,27.47 C94.471834,27.6687086 88.6668447,33.6341257 88.6668447,40.925 C88.6668447,48.2158743 94.471834,54.1812914 101.76,54.38 C102.659987,54.3773519 103.55757,54.2869238 104.44,54.11 C98.1737613,52.8279423 93.6731457,47.3160463 93.67,40.92 Z" id="Path" fill="#231F20" opacity="0.2" style="mix-blend-mode: multiply;"></path>
                <path d="M85.23,122.62 C78.3334874,121.727333 71.3868856,123.850875 66.1682901,128.447069 C60.9496946,133.043263 57.9656606,139.66597 57.98,146.62 L57.9799486,173.89 L64.14,173.89 L64.14,146.58 C64.1420901,134.425283 73.1738117,124.164494 85.23,122.62 Z" id="Path" fill="#231F20" opacity="0.2" style="mix-blend-mode: multiply;"></path>
            </g>
        </g>
    </g>
</svg>