<?xml version="1.0" encoding="UTF-8"?>
<svg width="852px" height="999px" viewBox="0 0 852 999" version="1.1" xmlns="http://www.w3.org/2000/svg" xmlns:xlink="http://www.w3.org/1999/xlink">
    <!-- Generator: Sketch 52.6 (67491) - http://www.bohemiancoding.com/sketch -->
    <title>film copy</title>
    <desc>Created with Sketch.</desc>
    <defs>
        <linearGradient x1="-0.00531443756%" y1="49.9955207%" x2="100.0124%" y2="49.9955207%" id="linearGradient-1">
            <stop stop-color="#FFFFFF" offset="0%"></stop>
            <stop stop-color="#FFFFFF" stop-opacity="0.133" offset="72%"></stop>
            <stop stop-color="#FFFFFF" stop-opacity="0" offset="90.4%"></stop>
        </linearGradient>
    </defs>
    <g id="Page-2" stroke="none" stroke-width="1" fill="none" fill-rule="evenodd">
        <g id="Desktop-HD" transform="translate(0.000000, -4801.000000)">
            <g id="film-copy" transform="translate(0.000000, 4801.000000)">
                <ellipse id="Oval" fill="#000000" opacity="0.1" cx="387.5" cy="961.5" rx="387.5" ry="37.5"></ellipse>
                <path d="M486,469.084547 L312.620026,525 L304.520962,501.119442 C302.721169,495.586142 305.720823,489.470389 311.420165,487.723032 L464.102529,438.505784 C469.801871,436.758426 476.101143,439.670689 477.900935,445.203989 L486,469.084547 Z" id="Path" fill="#606163"></path>
                <polygon id="Path" fill="#111010" points="335.937209 434 217 292.158585 228.654651 283.017038 342.212791 418.370904 398.394186 410.998689 447.104651 387.112713 459.05814 209 474 209.884666 461.448837 396.549148 402.876744 425.448231"></polygon>
                <path d="M361.602042,142.298103 L388.304217,374.520055 L361.602042,142.298103 Z M364.374523,142 L391,374.326288 L385.631158,375 L359,142.688617 L364.374523,142 Z" id="Shape" fill="#F5A623" fill-rule="nonzero"></path>
                <circle id="Oval" fill="#F5A623" cx="441" cy="124" r="89"></circle>
                <path d="M440.350747,249 C420.947856,249 401.843471,244.524679 383.93311,235.275682 C354.381014,220.059591 332.291569,194.401085 322.142364,162.775483 C311.993159,131.149882 314.381207,97.4357978 329.605014,67.8986797 C344.828821,38.3615616 370.500339,16.2833116 402.141977,6.13925087 C433.783615,-4.0048099 467.514795,-1.61797207 497.06689,13.5981191 C526.618986,28.8142103 548.708431,54.4727169 558.857636,86.0983182 C569.006841,117.723919 566.618793,151.438004 551.394986,180.975122 C536.171179,210.51224 510.499661,232.59049 478.858023,242.734551 C466.320771,247.209872 453.485012,249 440.350747,249 Z M440.649253,15.0898927 C429.306024,15.0898927 417.66429,16.8800211 406.619567,20.4602778 C378.858507,29.4109197 356.17205,48.8039771 342.739279,75.0591932 C329.306508,101.314409 327.216966,130.851527 336.172147,158.598517 C345.127327,186.345507 364.530218,209.020466 390.798748,222.446429 C416.768772,235.872392 446.619373,237.960875 474.380433,229.010233 C502.141493,220.059591 524.82795,200.666534 538.260721,174.411318 C551.693492,148.454456 553.783034,118.618984 544.827853,90.8719938 C535.872673,63.125004 516.469782,40.4500447 490.201252,27.0240819 C474.678939,18.9685042 457.664096,15.0898927 440.649253,15.0898927 Z" id="Shape" fill="#606163" fill-rule="nonzero"></path>
                <path d="M440.350747,249 C420.947856,249 401.843471,244.524679 383.93311,235.275682 C354.381014,220.059591 332.291569,194.401085 322.142364,162.775483 C311.993159,131.149882 314.381207,97.4357978 329.605014,67.8986797 C344.828821,38.3615616 370.500339,16.2833116 402.141977,6.13925087 C433.783615,-4.0048099 467.514795,-1.61797207 497.06689,13.5981191 C526.618986,28.8142103 548.708431,54.4727169 558.857636,86.0983182 C569.006841,117.723919 566.618793,151.438004 551.394986,180.975122 C536.171179,210.51224 510.499661,232.59049 478.858023,242.734551 C466.320771,247.209872 453.485012,249 440.350747,249 Z M440.649253,15.0898927 C429.306024,15.0898927 417.66429,16.8800211 406.619567,20.4602778 C378.858507,29.4109197 356.17205,48.8039771 342.739279,75.0591932 C329.306508,101.314409 327.216966,130.851527 336.172147,158.598517 C345.127327,186.345507 364.530218,209.020466 390.798748,222.446429 C416.768772,235.872392 446.619373,237.960875 474.380433,229.010233 C502.141493,220.059591 524.82795,200.666534 538.260721,174.411318 C551.693492,148.454456 553.783034,118.618984 544.827853,90.8719938 C535.872673,63.125004 516.469782,40.4500447 490.201252,27.0240819 C474.678939,18.9685042 457.664096,15.0898927 440.649253,15.0898927 Z" id="Shape" fill="#111010" fill-rule="nonzero"></path>
                <polygon id="Path" fill="#111010" points="409.270413 12 482 232.429281 467.726586 237 395 16.5648061"></polygon>
                <polygon id="Path" fill="#111010" points="484.761599 16 498 22.7038711 392.253259 229 379 222.296129"></polygon>
                <polygon id="Path" fill="#111010" points="338.700918 63 545 167.871207 538.296129 181 332 76.1464749"></polygon>
                <polygon id="Path" fill="#111010" points="548.435554 79 553 93.2842992 332.564446 166 328 151.721706"></polygon>
                <circle id="Oval" fill="#111010" cx="441" cy="124" r="14"></circle>
                <path d="M561,420.074718 L272.940468,513 L230.298115,382.490289 C225.82514,369.172971 233.280097,354.671892 246.997218,350.232786 L485.854035,273.288286 C499.272957,268.84918 513.884673,276.247689 518.357647,289.860947 L561,420.074718 Z" id="Path" fill="#222222"></path>
                <path d="M526,429.907823 L462.935175,450 L457.283139,432.819733 C455.795761,427.869487 458.473041,422.628049 463.530126,421.172094 L508.44894,406.903737 C513.506025,405.447782 518.860586,408.068501 520.347964,413.018747 L526,429.907823 Z M393.557175,395.510507 L373.471623,401.902149 L364,373.377082 L384.085552,367 L393.557175,395.510507 Z" id="Shape" fill="#181818" fill-rule="nonzero"></path>
                <circle id="Oval" fill="#85FF00" opacity="0.6" cx="480" cy="314" r="10"></circle>
                <circle id="Oval" fill="#FF0000" opacity="0.6" cx="451" cy="324" r="8"></circle>
                <polygon id="Path" fill="#222222" points="498 326.771384 555.967802 308 573 360.228616 515.020532 379"></polygon>
                <polygon id="Path" fill="#222222" points="601 379 514 350.323864 567.493243 276"></polygon>
                <polygon id="Path" fill="#606163" points="612 385.082491 594.09617 391 557 274.923492 574.900888 269"></polygon>
                <path d="M276.962963,252.948718 L380,403 L276.962963,252.948718 Z M277.986309,249 L380,399.656281 L375.013691,403 L273,252.343719 L277.986309,249 Z" id="Shape" fill="#F5A623" fill-rule="nonzero"></path>
                <circle id="Oval" fill="#F5A623" cx="223" cy="282" r="65"></circle>
                <path d="M223.350906,407 C158.643943,407 103.77721,356.604846 99.3043787,291.001686 C94.5333585,222.714761 146.418204,163.075525 215.00162,158.304386 C283.585036,153.533247 342.924601,205.419383 347.695621,274.004504 C352.466642,342.291429 300.581796,401.930665 231.99838,406.701804 C229.314681,406.701804 226.332793,407 223.350906,407 Z M223.649094,172.915999 C221.263584,172.915999 218.579885,172.915999 216.194375,173.214195 C155.960244,177.388942 110.337363,229.871469 114.512006,290.107098 C118.686649,350.342726 170.869683,395.966741 231.402002,391.791995 C291.636133,387.617248 337.259014,335.134721 333.084372,274.899092 C328.909729,217.34723 280.603149,172.915999 223.649094,172.915999 Z" id="Shape" fill="#606163" fill-rule="nonzero"></path>
                <path d="M223.350906,407 C158.643943,407 103.77721,356.604846 99.3043787,291.001686 C94.5333585,222.714761 146.418204,163.075525 215.00162,158.304386 C283.585036,153.533247 342.924601,205.419383 347.695621,274.004504 C352.466642,342.291429 300.581796,401.930665 231.99838,406.701804 C229.314681,406.701804 226.332793,407 223.350906,407 Z M223.649094,172.915999 C221.263584,172.915999 218.579885,172.915999 216.194375,173.214195 C155.960244,177.388942 110.337363,229.871469 114.512006,290.107098 C118.686649,350.342726 170.869683,395.966741 231.402002,391.791995 C291.636133,387.617248 337.259014,335.134721 333.084372,274.899092 C328.909729,217.34723 280.603149,172.915999 223.649094,172.915999 Z" id="Shape" fill="#111010" fill-rule="nonzero"></path>
                <polygon id="Path" fill="#111010" points="224.425483 166 241 397.985693 225.586873 399 209 167.014307"></polygon>
                <polygon id="Path" fill="#111010" points="296.679088 189 308 198.793239 153.320912 375 142 365.206761"></polygon>
                <polygon id="Path" fill="#111010" points="139.804536 197 316 351.678679 306.207388 363 130 208.315315"></polygon>
                <polygon id="Path" fill="#111010" points="338.979657 268 340 283.398032 108.020343 300 107 284.601968"></polygon>
                <circle id="Oval" fill="#111010" cx="223" cy="282" r="14"></circle>
                <polygon id="Path" fill="#181818" points="561 420.351714 273.613424 513 269 498.017204 555.48698 403"></polygon>
                <path d="M660,458 C468.753854,523.300353 274.542652,549.123675 83,563.371025 L83,794 L660,794 L660,458 Z" id="Path" fill="#4A90E2"></path>
                <polygon id="Rectangle" fill="#606163" points="368 497.891892 404.418007 486 407 525.63964 370.495679 530"></polygon>
                <polygon id="Path" fill="#4A90E2" points="83 600 660 600 660 782 83 782"></polygon>
                <polygon id="Path" fill="#FEF6E0" points="79 620 664 620 664 766 79 766"></polygon>
                <polygon id="Path" fill="#284F7C" points="56 565 107 565 107 956 56 956"></polygon>
                <polygon id="Path" fill="#4A90E2" points="107 798 641 798 641 956 107 956"></polygon>
                <g id="Group-7" transform="translate(282.000000, 814.000000)">
                    <path d="M15,0 L54,0 L54,19.5 C54,30.2695526 45.2695526,39 34.5,39 L34.5,39 C23.7304474,39 15,30.2695526 15,19.5 L15,0 Z" id="Rectangle-2" fill="#E76160"></path>
                    <path d="M37,5 L49,5 L49,22.4 C49,28.8065031 43.8065031,34 37.4,34 C37.2661249,34 37.1327794,33.9977321 37,33.9932327 L37,5 Z" id="Combined-Shape-Copy" fill="#B73D56"></path>
                    <path d="M30,22 L42,22 C41.2727273,25.3333333 39.2727273,27 36,27 C32.7272727,27 30.7272727,25.3333333 30,22 Z" id="Path-9-Copy" fill="#FFFFFF" transform="translate(36.000000, 24.500000) scale(1, -1) translate(-36.000000, -24.500000) "></path>
                    <ellipse id="Oval-Copy-6" fill="#FFFFFF" cx="40.5" cy="12.5" rx="3.5" ry="2.5"></ellipse>
                    <path d="M0,0 L39,0 L39,19.5 C39,30.2695526 30.2695526,39 19.5,39 L19.5,39 C8.73044738,39 1.31888981e-15,30.2695526 0,19.5 L0,0 Z" id="Rectangle-Copy-19" fill="#FFC876"></path>
                    <path d="M20,5 L32,5 L32,22.4 C32,28.8065031 26.8065031,34 20.4,34 C20.2661249,34 20.1327794,33.9977321 20,33.9932327 L20,5 Z" id="Combined-Shape" fill="#FF9065"></path>
                    <ellipse id="Oval" fill="#FFFFFF" cx="25.5" cy="12.5" rx="3.5" ry="2.5"></ellipse>
                    <ellipse id="Oval-Copy-5" fill="#FFFFFF" cx="11.5" cy="12.5" rx="3.5" ry="2.5"></ellipse>
                    <path d="M12,22 L24,22 C23.2727273,25.3333333 21.2727273,27 18,27 C14.7272727,27 12.7272727,25.3333333 12,22 Z" id="Path-9" fill="#FFFFFF"></path>
                </g>
                <path d="M672,780.764706 L95,780.764706 L95,794 L672,794 L672,780.764706 Z M672,589 L95,589 L95,602.235294 L672,602.235294 L672,589 Z" id="Shape" fill="#3E0B49" fill-rule="nonzero"></path>
                <polygon id="Path" fill="#000000" opacity="0.2" points="107 794 641 845 641 794"></polygon>
                <polygon id="Path" fill="#000000" opacity="0.45" points="206 869 249 869 249 956 206 956"></polygon>
                <polygon id="Path" fill="#85837D" points="237 904 245 904 245 920 237 920"></polygon>
                <polygon id="Path" fill="#000000" opacity="0.45" points="249 869 292 869 292 956 249 956"></polygon>
                <polygon id="Path" fill="#85837D" points="253 904 261 904 261 920 253 920"></polygon>
                <polygon id="Path" fill="#000000" opacity="0.45" points="320 869 363 869 363 956 320 956"></polygon>
                <polygon id="Path" fill="#85837D" points="356 904 364 904 364 920 356 920"></polygon>
                <polygon id="Path" fill="#000000" opacity="0.45" points="364 869 407 869 407 956 364 956"></polygon>
                <polygon id="Path" fill="#85837D" points="368 904 376 904 376 920 368 920"></polygon>
                <circle id="Oval" fill="#FFF170" opacity="0.2" cx="115" cy="608" r="8"></circle>
                <circle id="Oval" fill="#FFF170" opacity="0.2" cx="111" cy="604" r="8"></circle>
                <circle id="Oval" fill="#FFF170" cx="113" cy="606" r="6"></circle>
                <circle id="Oval" fill="#FFFFFF" opacity="0.21" cx="138" cy="608" r="8"></circle>
                <circle id="Oval" fill="#FFFFFF" opacity="0.1" cx="138" cy="608" r="8"></circle>
                <circle id="Oval" fill="#FFFFFF" cx="136" cy="606" r="6"></circle>
                <circle id="Oval" fill="#FFF170" opacity="0.2" cx="162" cy="608" r="8"></circle>
                <circle id="Oval" fill="#FFF170" opacity="0.2" cx="162" cy="604" r="8"></circle>
                <circle id="Oval" fill="#FFF170" cx="160" cy="606" r="6"></circle>
                <circle id="Oval" fill="#FFFFFF" opacity="0.1" cx="186" cy="608" r="8"></circle>
                <circle id="Oval" fill="#FFFFFF" opacity="0.21" cx="186" cy="608" r="8"></circle>
                <circle id="Oval" fill="#FFFFFF" cx="188" cy="606" r="6"></circle>
                <circle id="Oval" fill="#FFF170" opacity="0.2" cx="213" cy="608" r="8"></circle>
                <circle id="Oval" fill="#FFF170" opacity="0.2" cx="209" cy="604" r="8"></circle>
                <circle id="Oval" fill="#FFF170" cx="211" cy="606" r="6"></circle>
                <circle id="Oval" fill="#FFFFFF" opacity="0.21" cx="237" cy="608" r="8"></circle>
                <circle id="Oval" fill="#FFFFFF" opacity="0.1" cx="237" cy="608" r="8"></circle>
                <circle id="Oval" fill="#FFFFFF" cx="235" cy="606" r="6"></circle>
                <circle id="Oval" fill="#FFF170" opacity="0.2" cx="261" cy="608" r="8"></circle>
                <circle id="Oval" fill="#FFF170" opacity="0.2" cx="261" cy="604" r="8"></circle>
                <circle id="Oval" fill="#FFF170" cx="263" cy="606" r="6"></circle>
                <circle id="Oval" fill="#FFFFFF" opacity="0.1" cx="289" cy="608" r="8"></circle>
                <circle id="Oval" fill="#FFFFFF" opacity="0.21" cx="289" cy="608" r="8"></circle>
                <circle id="Oval" fill="#FFFFFF" cx="287" cy="606" r="6"></circle>
                <circle id="Oval" fill="#FFF170" opacity="0.2" cx="312" cy="608" r="8"></circle>
                <circle id="Oval" fill="#FFF170" opacity="0.2" cx="312" cy="604" r="8"></circle>
                <circle id="Oval" fill="#FFF170" cx="310" cy="606" r="6"></circle>
                <circle id="Oval" fill="#FFFFFF" opacity="0.21" cx="336" cy="608" r="8"></circle>
                <circle id="Oval" fill="#FFFFFF" opacity="0.1" cx="336" cy="608" r="8"></circle>
                <circle id="Oval" fill="#FFFFFF" cx="338" cy="606" r="6"></circle>
                <circle id="Oval" fill="#FFF170" opacity="0.2" cx="364" cy="608" r="8"></circle>
                <circle id="Oval" fill="#FFF170" opacity="0.2" cx="360" cy="604" r="8"></circle>
                <circle id="Oval" fill="#FFF170" cx="362" cy="606" r="6"></circle>
                <circle id="Oval" fill="#FFFFFF" opacity="0.1" cx="387" cy="608" r="8"></circle>
                <circle id="Oval" fill="#FFFFFF" opacity="0.21" cx="387" cy="608" r="8"></circle>
                <circle id="Oval" fill="#FFFFFF" cx="385" cy="606" r="6"></circle>
                <circle id="Oval" fill="#FFF170" opacity="0.2" cx="411" cy="608" r="8"></circle>
                <circle id="Oval" fill="#FFF170" opacity="0.2" cx="411" cy="604" r="8"></circle>
                <circle id="Oval" fill="#FFF170" cx="413" cy="606" r="6"></circle>
                <circle id="Oval" fill="#FFFFFF" opacity="0.21" cx="439" cy="608" r="8"></circle>
                <circle id="Oval" fill="#FFFFFF" opacity="0.1" cx="435" cy="608" r="8"></circle>
                <circle id="Oval" fill="#FFFFFF" cx="437" cy="606" r="6"></circle>
                <circle id="Oval" fill="#FFF170" opacity="0.2" cx="462" cy="608" r="8"></circle>
                <circle id="Oval" fill="#FFF170" opacity="0.2" cx="458" cy="604" r="8"></circle>
                <circle id="Oval" fill="#FFF170" cx="460" cy="606" r="6"></circle>
                <circle id="Oval" fill="#FFFFFF" opacity="0.1" cx="486" cy="608" r="8"></circle>
                <circle id="Oval" fill="#FFFFFF" opacity="0.21" cx="486" cy="608" r="8"></circle>
                <circle id="Oval" fill="#FFFFFF" cx="484" cy="606" r="6"></circle>
                <circle id="Oval" fill="#FFF170" opacity="0.2" cx="510" cy="608" r="8"></circle>
                <circle id="Oval" fill="#FFF170" opacity="0.2" cx="510" cy="604" r="8"></circle>
                <circle id="Oval" fill="#FFF170" cx="512" cy="606" r="6"></circle>
                <circle id="Oval" fill="#FFFFFF" opacity="0.21" cx="538" cy="608" r="8"></circle>
                <circle id="Oval" fill="#FFFFFF" opacity="0.1" cx="538" cy="608" r="8"></circle>
                <circle id="Oval" fill="#FFFFFF" cx="536" cy="606" r="6"></circle>
                <circle id="Oval" fill="#FFF170" opacity="0.2" cx="561" cy="608" r="8"></circle>
                <circle id="Oval" fill="#FFF170" opacity="0.2" cx="561" cy="604" r="8"></circle>
                <circle id="Oval" fill="#FFF170" cx="559" cy="606" r="6"></circle>
                <circle id="Oval" fill="#FFFFFF" opacity="0.1" cx="585" cy="608" r="8"></circle>
                <circle id="Oval" fill="#FFFFFF" opacity="0.21" cx="585" cy="608" r="8"></circle>
                <circle id="Oval" fill="#FFFFFF" cx="587" cy="606" r="6"></circle>
                <circle id="Oval" fill="#FFF170" opacity="0.2" cx="613" cy="608" r="8"></circle>
                <circle id="Oval" fill="#FFF170" opacity="0.2" cx="609" cy="604" r="8"></circle>
                <circle id="Oval" fill="#FFF170" cx="611" cy="606" r="6"></circle>
                <circle id="Oval" fill="#FFFFFF" opacity="0.21" cx="636" cy="608" r="8"></circle>
                <circle id="Oval" fill="#FFFFFF" opacity="0.1" cx="636" cy="608" r="8"></circle>
                <circle id="Oval" fill="#FFFFFF" cx="634" cy="606" r="6"></circle>
                <circle id="Oval" fill="#FFF170" opacity="0.2" cx="660" cy="608" r="8"></circle>
                <circle id="Oval" fill="#FFF170" opacity="0.2" cx="660" cy="604" r="8"></circle>
                <circle id="Oval" fill="#FFF170" cx="662" cy="606" r="6"></circle>
                <circle id="Oval" fill="#FFF170" opacity="0.2" cx="115" cy="782" r="8"></circle>
                <circle id="Oval" fill="#FFF170" opacity="0.2" cx="111" cy="778" r="8"></circle>
                <circle id="Oval" fill="#FFF170" cx="113" cy="780" r="6"></circle>
                <circle id="Oval" fill="#FFFFFF" opacity="0.21" cx="138" cy="782" r="8"></circle>
                <circle id="Oval" fill="#FFFFFF" opacity="0.1" cx="138" cy="782" r="8"></circle>
                <circle id="Oval" fill="#FFFFFF" cx="136" cy="780" r="6"></circle>
                <circle id="Oval" fill="#FFF170" opacity="0.2" cx="162" cy="782" r="8"></circle>
                <circle id="Oval" fill="#FFF170" opacity="0.2" cx="162" cy="778" r="8"></circle>
                <circle id="Oval" fill="#FFF170" cx="160" cy="780" r="6"></circle>
                <circle id="Oval" fill="#FFFFFF" opacity="0.1" cx="186" cy="782" r="8"></circle>
                <circle id="Oval" fill="#FFFFFF" opacity="0.21" cx="186" cy="782" r="8"></circle>
                <circle id="Oval" fill="#FFFFFF" cx="188" cy="780" r="6"></circle>
                <circle id="Oval" fill="#FFF170" opacity="0.2" cx="213" cy="782" r="8"></circle>
                <circle id="Oval" fill="#FFF170" opacity="0.2" cx="209" cy="778" r="8"></circle>
                <circle id="Oval" fill="#FFF170" cx="211" cy="780" r="6"></circle>
                <circle id="Oval" fill="#FFFFFF" opacity="0.21" cx="237" cy="782" r="8"></circle>
                <circle id="Oval" fill="#FFFFFF" opacity="0.1" cx="237" cy="782" r="8"></circle>
                <circle id="Oval" fill="#FFFFFF" cx="235" cy="780" r="6"></circle>
                <circle id="Oval" fill="#FFF170" opacity="0.2" cx="261" cy="782" r="8"></circle>
                <circle id="Oval" fill="#FFF170" opacity="0.2" cx="261" cy="778" r="8"></circle>
                <circle id="Oval" fill="#FFF170" cx="263" cy="780" r="6"></circle>
                <circle id="Oval" fill="#FFFFFF" opacity="0.1" cx="289" cy="782" r="8"></circle>
                <circle id="Oval" fill="#FFFFFF" opacity="0.21" cx="289" cy="782" r="8"></circle>
                <circle id="Oval" fill="#FFFFFF" cx="287" cy="780" r="6"></circle>
                <circle id="Oval" fill="#FFF170" opacity="0.2" cx="312" cy="782" r="8"></circle>
                <circle id="Oval" fill="#FFF170" opacity="0.2" cx="312" cy="778" r="8"></circle>
                <circle id="Oval" fill="#FFF170" cx="310" cy="780" r="6"></circle>
                <circle id="Oval" fill="#FFFFFF" opacity="0.21" cx="336" cy="782" r="8"></circle>
                <circle id="Oval" fill="#FFFFFF" opacity="0.1" cx="336" cy="782" r="8"></circle>
                <circle id="Oval" fill="#FFFFFF" cx="338" cy="780" r="6"></circle>
                <circle id="Oval" fill="#FFF170" opacity="0.2" cx="364" cy="782" r="8"></circle>
                <circle id="Oval" fill="#FFF170" opacity="0.2" cx="360" cy="778" r="8"></circle>
                <circle id="Oval" fill="#FFF170" cx="362" cy="780" r="6"></circle>
                <circle id="Oval" fill="#FFFFFF" opacity="0.1" cx="387" cy="782" r="8"></circle>
                <circle id="Oval" fill="#FFFFFF" opacity="0.21" cx="387" cy="782" r="8"></circle>
                <circle id="Oval" fill="#FFFFFF" cx="385" cy="780" r="6"></circle>
                <circle id="Oval" fill="#FFF170" opacity="0.2" cx="411" cy="782" r="8"></circle>
                <circle id="Oval" fill="#FFF170" opacity="0.2" cx="411" cy="778" r="8"></circle>
                <circle id="Oval" fill="#FFF170" cx="413" cy="780" r="6"></circle>
                <circle id="Oval" fill="#FFFFFF" opacity="0.21" cx="439" cy="782" r="8"></circle>
                <circle id="Oval" fill="#FFFFFF" opacity="0.1" cx="435" cy="782" r="8"></circle>
                <circle id="Oval" fill="#FFFFFF" cx="437" cy="780" r="6"></circle>
                <circle id="Oval" fill="#FFF170" opacity="0.2" cx="462" cy="782" r="8"></circle>
                <circle id="Oval" fill="#FFF170" opacity="0.2" cx="458" cy="778" r="8"></circle>
                <circle id="Oval" fill="#FFF170" cx="460" cy="780" r="6"></circle>
                <circle id="Oval" fill="#FFFFFF" opacity="0.1" cx="486" cy="782" r="8"></circle>
                <circle id="Oval" fill="#FFFFFF" opacity="0.21" cx="486" cy="782" r="8"></circle>
                <circle id="Oval" fill="#FFFFFF" cx="484" cy="780" r="6"></circle>
                <circle id="Oval" fill="#FFF170" opacity="0.2" cx="510" cy="782" r="8"></circle>
                <circle id="Oval" fill="#FFF170" opacity="0.2" cx="510" cy="778" r="8"></circle>
                <circle id="Oval" fill="#FFF170" cx="512" cy="780" r="6"></circle>
                <circle id="Oval" fill="#FFFFFF" opacity="0.21" cx="538" cy="782" r="8"></circle>
                <circle id="Oval" fill="#FFFFFF" opacity="0.1" cx="538" cy="782" r="8"></circle>
                <circle id="Oval" fill="#FFFFFF" cx="536" cy="780" r="6"></circle>
                <circle id="Oval" fill="#FFF170" opacity="0.2" cx="561" cy="782" r="8"></circle>
                <circle id="Oval" fill="#FFF170" opacity="0.2" cx="561" cy="778" r="8"></circle>
                <circle id="Oval" fill="#FFF170" cx="559" cy="780" r="6"></circle>
                <circle id="Oval" fill="#FFFFFF" opacity="0.1" cx="585" cy="782" r="8"></circle>
                <circle id="Oval" fill="#FFFFFF" opacity="0.21" cx="585" cy="782" r="8"></circle>
                <circle id="Oval" fill="#FFFFFF" cx="587" cy="780" r="6"></circle>
                <circle id="Oval" fill="#FFF170" opacity="0.2" cx="613" cy="782" r="8"></circle>
                <circle id="Oval" fill="#FFF170" opacity="0.2" cx="609" cy="778" r="8"></circle>
                <circle id="Oval" fill="#FFF170" cx="611" cy="780" r="6"></circle>
                <circle id="Oval" fill="#FFFFFF" opacity="0.21" cx="636" cy="782" r="8"></circle>
                <circle id="Oval" fill="#FFFFFF" opacity="0.1" cx="636" cy="782" r="8"></circle>
                <circle id="Oval" fill="#FFFFFF" cx="634" cy="780" r="6"></circle>
                <circle id="Oval" fill="#FFF170" opacity="0.2" cx="660" cy="782" r="8"></circle>
                <circle id="Oval" fill="#FFF170" opacity="0.2" cx="660" cy="778" r="8"></circle>
                <circle id="Oval" fill="#FFF170" cx="662" cy="780" r="6"></circle>
                <path d="M107,652 L225.827331,652 L225.827331,669.970954 L107,669.970954 L107,652 Z M107,705.029046 L225.827331,705.029046 L225.827331,723 L107,723 L107,705.029046 Z M107,678.514523 L211.120978,678.514523 L211.120978,696.485477 L107,696.485477 L107,678.514523 Z M529.416663,652 L584.04,652 L584.04,669.970954 L529.416663,669.970954 L529.416663,652 Z M529.416663,705.029046 L584.04,705.029046 L584.04,723 L529.416663,723 L529.416663,705.029046 Z M529.416663,678.514523 L577.279686,678.514523 L577.279686,696.485477 L529.416663,696.485477 L529.416663,678.514523 Z M605.103333,652 L641,652 L641,669.970954 L605.103333,669.970954 L605.103333,652 Z M605.103333,705.029046 L641,705.029046 L641,723 L605.103333,723 L605.103333,705.029046 Z M605.103333,678.514523 L635.66,678.514523 L635.66,696.485477 L605.103333,696.485477 L605.103333,678.514523 Z" id="Shape" fill="#000000" fill-rule="nonzero" opacity="0.11"></path>
                <polygon id="Path" fill="url(#linearGradient-1)" opacity="0.27" points="913 358.524076 610.629761 379 577 276.026876 836.812223 114"></polygon>
                <g id="Group-2-Copy" transform="translate(518.000000, 865.000000)">
                    <polygon id="Path" fill="#F0F0F0" points="3.91666667 0 43.0833333 0 43.0833333 39 3.91666667 39"></polygon>
                    <polygon id="Path-Copy-4" fill="#4A90E2" points="19.5833333 0 27.4166667 0 27.4166667 39 19.5833333 39"></polygon>
                    <polygon id="Path-Copy-2" fill="#4A90E2" transform="translate(23.500000, 19.500000) rotate(90.000000) translate(-23.500000, -19.500000) " points="19.6 -4 27.4 -4 27.4 43 19.6 43"></polygon>
                </g>
            </g>
        </g>
    </g>
</svg>