<?xml version="1.0" encoding="UTF-8"?>
<svg width="191px" height="132px" viewBox="0 0 191 132" version="1.1" xmlns="http://www.w3.org/2000/svg" xmlns:xlink="http://www.w3.org/1999/xlink">
    <!-- Generator: Sketch 52.6 (67491) - http://www.bohemiancoding.com/sketch -->
    <title>santasearch</title>
    <desc>Created with Sketch.</desc>
    <g id="Page-2" stroke="none" stroke-width="1" fill="none" fill-rule="evenodd">
        <g id="Pixel-2" transform="translate(-218.000000, -981.000000)">
            <g id="santasearch" transform="translate(218.000000, 981.000000)">
                <polygon id="Path" fill="#E53935" points="5 113 171 113 171 128 5 128"></polygon>
                <g id="Group" opacity="0.1" transform="translate(3.000000, 113.000000)" fill="#000000" fill-rule="nonzero">
                    <path d="M0.681081081,5.18095238 L167.848649,5.18095238 L167.848649,6.01904762 L0.681081081,6.01904762 L0.681081081,5.18095238 Z M0.681081081,10.1333333 L167.848649,10.1333333 L167.848649,10.9714286 L0.681081081,10.9714286 L0.681081081,10.1333333 Z" id="Shape"></path>
                    <path d="M10.1405405,0.60952381 L10.972973,0.60952381 L10.972973,5.56190476 L10.1405405,5.56190476 L10.1405405,0.60952381 Z M19.9783784,0.60952381 L20.8108108,0.60952381 L20.8108108,5.56190476 L19.9783784,5.56190476 L19.9783784,0.60952381 Z M29.8162162,0.60952381 L30.6486486,0.60952381 L30.6486486,5.56190476 L29.8162162,5.56190476 L29.8162162,0.60952381 Z M39.6540541,0.60952381 L40.4864865,0.60952381 L40.4864865,5.56190476 L39.6540541,5.56190476 L39.6540541,0.60952381 Z M49.4918919,0.60952381 L50.3243243,0.60952381 L50.3243243,5.56190476 L49.4918919,5.56190476 L49.4918919,0.60952381 Z M59.2540541,0.60952381 L60.0864865,0.60952381 L60.0864865,5.56190476 L59.2540541,5.56190476 L59.2540541,0.60952381 Z M69.0918919,0.60952381 L69.9243243,0.60952381 L69.9243243,5.56190476 L69.0918919,5.56190476 L69.0918919,0.60952381 Z M78.9297297,0.60952381 L79.7621622,0.60952381 L79.7621622,5.56190476 L78.9297297,5.56190476 L78.9297297,0.60952381 Z M88.7675676,0.60952381 L89.6,0.60952381 L89.6,5.56190476 L88.7675676,5.56190476 L88.7675676,0.60952381 Z M98.6054054,0.60952381 L99.4378378,0.60952381 L99.4378378,5.56190476 L98.6054054,5.56190476 L98.6054054,0.60952381 Z M108.443243,0.60952381 L109.275676,0.60952381 L109.275676,5.56190476 L108.443243,5.56190476 L108.443243,0.60952381 Z M118.281081,0.60952381 L119.113514,0.60952381 L119.113514,5.56190476 L118.281081,5.56190476 L118.281081,0.60952381 Z M128.118919,0.60952381 L128.951351,0.60952381 L128.951351,5.56190476 L128.118919,5.56190476 L128.118919,0.60952381 Z M137.956757,0.60952381 L138.789189,0.60952381 L138.789189,5.56190476 L137.956757,5.56190476 L137.956757,0.60952381 Z M147.794595,0.60952381 L148.627027,0.60952381 L148.627027,5.56190476 L147.794595,5.56190476 L147.794595,0.60952381 Z M157.632432,0.60952381 L158.464865,0.60952381 L158.464865,5.56190476 L157.632432,5.56190476 L157.632432,0.60952381 Z M10.1405405,10.5142857 L10.972973,10.5142857 L10.972973,15.4666667 L10.1405405,15.4666667 L10.1405405,10.5142857 Z M19.9783784,10.5142857 L20.8108108,10.5142857 L20.8108108,15.4666667 L19.9783784,15.4666667 L19.9783784,10.5142857 Z M29.8162162,10.5142857 L30.6486486,10.5142857 L30.6486486,15.4666667 L29.8162162,15.4666667 L29.8162162,10.5142857 Z M39.6540541,10.5142857 L40.4864865,10.5142857 L40.4864865,15.4666667 L39.6540541,15.4666667 L39.6540541,10.5142857 Z M49.4918919,10.5142857 L50.3243243,10.5142857 L50.3243243,15.4666667 L49.4918919,15.4666667 L49.4918919,10.5142857 Z M59.2540541,10.5142857 L60.0864865,10.5142857 L60.0864865,15.4666667 L59.2540541,15.4666667 L59.2540541,10.5142857 Z M69.0918919,10.5142857 L69.9243243,10.5142857 L69.9243243,15.4666667 L69.0918919,15.4666667 L69.0918919,10.5142857 Z M78.9297297,10.5142857 L79.7621622,10.5142857 L79.7621622,15.4666667 L78.9297297,15.4666667 L78.9297297,10.5142857 Z M88.7675676,10.5142857 L89.6,10.5142857 L89.6,15.4666667 L88.7675676,15.4666667 L88.7675676,10.5142857 Z M98.6054054,10.5142857 L99.4378378,10.5142857 L99.4378378,15.4666667 L98.6054054,15.4666667 L98.6054054,10.5142857 Z M108.443243,10.5142857 L109.275676,10.5142857 L109.275676,15.4666667 L108.443243,15.4666667 L108.443243,10.5142857 Z M118.281081,10.5142857 L119.113514,10.5142857 L119.113514,15.4666667 L118.281081,15.4666667 L118.281081,10.5142857 Z M128.118919,10.5142857 L128.951351,10.5142857 L128.951351,15.4666667 L128.118919,15.4666667 L128.118919,10.5142857 Z M137.956757,10.5142857 L138.789189,10.5142857 L138.789189,15.4666667 L137.956757,15.4666667 L137.956757,10.5142857 Z M147.794595,10.5142857 L148.627027,10.5142857 L148.627027,15.4666667 L147.794595,15.4666667 L147.794595,10.5142857 Z M157.632432,10.5142857 L158.464865,10.5142857 L158.464865,15.4666667 L157.632432,15.4666667 L157.632432,10.5142857 Z M5.22162162,5.56190476 L6.05405405,5.56190476 L6.05405405,10.5142857 L5.22162162,10.5142857 L5.22162162,5.56190476 Z M15.0594595,5.56190476 L15.8918919,5.56190476 L15.8918919,10.5142857 L15.0594595,10.5142857 L15.0594595,5.56190476 Z M24.8972973,5.56190476 L25.7297297,5.56190476 L25.7297297,10.5142857 L24.8972973,10.5142857 L24.8972973,5.56190476 Z M34.7351351,5.56190476 L35.5675676,5.56190476 L35.5675676,10.5142857 L34.7351351,10.5142857 L34.7351351,5.56190476 Z M44.572973,5.56190476 L45.4054054,5.56190476 L45.4054054,10.5142857 L44.572973,10.5142857 L44.572973,5.56190476 Z M54.4108108,5.56190476 L55.2432432,5.56190476 L55.2432432,10.5142857 L54.4108108,10.5142857 L54.4108108,5.56190476 Z M64.172973,5.56190476 L65.0054054,5.56190476 L65.0054054,10.5142857 L64.172973,10.5142857 L64.172973,5.56190476 Z M74.0108108,5.56190476 L74.8432432,5.56190476 L74.8432432,10.5142857 L74.0108108,10.5142857 L74.0108108,5.56190476 Z M83.8486486,5.56190476 L84.6810811,5.56190476 L84.6810811,10.5142857 L83.8486486,10.5142857 L83.8486486,5.56190476 Z M93.6864865,5.56190476 L94.5189189,5.56190476 L94.5189189,10.5142857 L93.6864865,10.5142857 L93.6864865,5.56190476 Z M103.524324,5.56190476 L104.356757,5.56190476 L104.356757,10.5142857 L103.524324,10.5142857 L103.524324,5.56190476 Z M113.362162,5.56190476 L114.194595,5.56190476 L114.194595,10.5142857 L113.362162,10.5142857 L113.362162,5.56190476 Z M123.2,5.56190476 L124.032432,5.56190476 L124.032432,10.5142857 L123.2,10.5142857 L123.2,5.56190476 Z M133.037838,5.56190476 L133.87027,5.56190476 L133.87027,10.5142857 L133.037838,10.5142857 L133.037838,5.56190476 Z M142.875676,5.56190476 L143.708108,5.56190476 L143.708108,10.5142857 L142.875676,10.5142857 L142.875676,5.56190476 Z M152.713514,5.56190476 L153.545946,5.56190476 L153.545946,10.5142857 L152.713514,10.5142857 L152.713514,5.56190476 Z M162.551351,5.56190476 L163.383784,5.56190476 L163.383784,10.5142857 L162.551351,10.5142857 L162.551351,5.56190476 Z" id="Shape"></path>
                </g>
                <g id="Group-4" transform="translate(5.000000, 0.000000)">
                    <rect id="Rectangle" fill="#D0CFD5" x="0" y="21" width="166" height="92"></rect>
                    <rect id="Rectangle" fill="#687E7C" x="0" y="109" width="166" height="4"></rect>
                    <rect id="Rectangle" fill="#AAAAAA" x="0" y="22" width="8" height="90"></rect>
                    <rect id="Rectangle-Copy-5" fill="#AAAAAA" x="159" y="22" width="7" height="90"></rect>
                    <rect id="Rectangle" fill="#1C1E1D" x="0" y="43" width="166" height="60"></rect>
                    <path d="M89.84689,21 L115.263158,21 L118.937799,25.4075472 L122,53 L89.84689,53 L58,53 L61.062201,25.4075472 L64.7368421,21 L89.84689,21 Z" id="Combined-Shape" fill="#DCDCE6"></path>
                    <rect id="Rectangle" fill="#0B0B0B" x="159" y="43" width="7" height="60"></rect>
                    <rect id="Rectangle-Copy-7" fill="#0B0B0B" x="1" y="43" width="7" height="60"></rect>
                    <rect id="Rectangle" fill="#FFFFFF" x="0" y="26" width="166" height="2"></rect>
                    <rect id="Rectangle" fill="#7B7D7C" x="0" y="26" width="8" height="2"></rect>
                    <rect id="Rectangle-Copy-6" fill="#7B7D7C" x="159" y="26" width="7" height="2"></rect>
                    <rect id="Rectangle" fill="#D8D8D8" x="78" y="0" width="5" height="2"></rect>
                    <rect id="Rectangle-Copy-4" fill="#D8D8D8" x="98" y="0" width="5" height="2"></rect>
                    <rect id="Rectangle" fill="#D8D8D8" x="78" y="2" width="25" height="2"></rect>
                    <polygon id="Rectangle" fill="#FFFFFF" points="77.6190476 4 103 4 116 21 64 21"></polygon>
                    <path d="M37.0454545,10.3636364 L40,10.3636364 L40,21 L27,21 L27,10.3636364 L29.9545455,10.3636364 L29.9545455,8 L37.0454545,8 L37.0454545,10.3636364 Z" id="Combined-Shape" fill="#FFFFFF"></path>
                    <rect id="Rectangle" fill="#D0CFD5" x="8" y="15" width="18" height="6"></rect>
                    <path d="M63.3888889,16.6923077 L63.3888889,21 L42.6111111,21 L42.6111111,16.6923077 L42,16.6923077 L42,13 L64,13 L64,16.6923077 L63.3888889,16.6923077 Z" id="Combined-Shape" fill="#000000"></path>
                    <circle id="Oval" fill="#0D0D0D" cx="89" cy="76" r="40"></circle>
                    <rect id="Rectangle" fill="#D8D8D8" x="135" y="13" width="21" height="5"></rect>
                    <rect id="Rectangle" fill="#D8D8D8" x="137" y="11" width="7" height="3"></rect>
                    <rect id="Rectangle-Copy-8" fill="#D8D8D8" x="148" y="11" width="7" height="3"></rect>
                    <rect id="Rectangle" fill="#000000" x="132" y="18" width="27" height="3"></rect>
                </g>
                <ellipse id="Oval" fill="#000000" opacity="0.1" cx="95.5" cy="127.5" rx="95.5" ry="4.5"></ellipse>
                <path d="M37.5369755,102.022472 C43.4181846,102.022472 48.1827084,106.91236 48.1827084,112.948315 L48.1827084,119.901124 L26.8167969,119.901124 L26.8167969,112.948315 C26.8912426,106.91236 31.6557664,102.022472 37.5369755,102.022472 Z M37.5369755,94 C27.3379167,94 19,102.557303 19,113.024719 L19,128 L55.9995053,128 L55.9995053,113.024719 C56.073951,102.480899 47.7360343,94 37.5369755,94 Z" id="Shape" fill="#414042" fill-rule="nonzero" opacity="0.1"></path>
                <path d="M19,123 L19,112.454277 C19,104.489676 25.5102041,98 33.5,98 C41.4897959,98 48,104.489676 48,112.454277 L48,123 L19,123 Z" id="Path" fill="#2F4C52"></path>
                <path d="M34.5372233,102.022472 C40.4185111,102.022472 45.1830986,106.91236 45.1830986,112.948315 L45.1830986,119.901124 L23.8169014,119.901124 L23.8169014,112.948315 C23.8169014,106.91236 28.5814889,102.022472 34.5372233,102.022472 Z M34.5372233,94 C24.3380282,94 16,102.557303 16,113.024719 L16,128 L53,128 L53,113.024719 C53,102.480899 44.7364185,94 34.5372233,94 Z" id="Shape" fill="#455D82" fill-rule="nonzero"></path>
                <path d="M34.9616725,103 C28.9059233,103 24,107.719764 24,113.545723 L24,128 L46,128 L46,113.545723 C45.9233449,107.719764 41.0174216,103 34.9616725,103 Z" id="Path" fill="#795548"></path>
                <path d="M37,103.147493 C36.3809524,103.073746 35.7619048,103 35.0654762,103 C28.952381,103 24,107.719764 24,113.545723 L24,128 L27.7916667,128 L27.7916667,113.545723 C27.7916667,108.383481 31.8154762,104.032448 37,103.147493 Z" id="Path" fill="#000000" opacity="0.2"></path>
                <path d="M34.0905433,95 L34.9094567,95 L34.9094567,102.670025 L34.0905433,102.670025 L34.0905433,95 Z M16,112.75063 L23.8169014,112.75063 L23.8169014,113.554156 L16,113.554156 L16,112.75063 Z M16,123.196474 L23.8169014,123.196474 L23.8169014,124 L16,124 L16,123.196474 Z M16,118.010076 L23.8169014,118.010076 L23.8169014,118.813602 L16,118.813602 L16,118.010076 Z M45.1830986,112.75063 L53,112.75063 L53,113.554156 L45.1830986,113.554156 L45.1830986,112.75063 Z M44.5562575,109.509496 L44.2435815,108.76733 L51.4649095,105.830806 L51.7775855,106.572242 L44.5562575,109.509496 Z M38.9712676,103.619647 L38.2148893,103.311385 L41.2076459,96.2257431 L41.9640241,96.534005 L38.9712676,103.619647 Z M30.0354326,103.60869 L27.0449095,96.5230479 L27.8012877,96.2147859 L30.7925553,103.300428 L30.0354326,103.60869 Z M24.5055332,109.51461 L17.2842052,106.578086 L17.5968813,105.83665 L24.8182093,108.771713 L24.5055332,109.51461 Z M45.1830986,123.196474 L53,123.196474 L53,124 L45.1830986,124 L45.1830986,123.196474 Z M45.1830986,118.010076 L53,118.010076 L53,118.813602 L45.1830986,118.813602 L45.1830986,118.010076 Z M26.6473642,106.00466 L21.1204427,100.580856 L21.6996378,100.012544 L27.2265594,105.437078 L26.6473642,106.00466 Z M42.3839034,106.042645 L41.8047082,105.475063 L47.3316298,100.051259 L47.9108249,100.619572 L42.3839034,106.042645 Z" id="Shape" fill="#2F4C52" fill-rule="nonzero"></path>
                <path d="M33.55,103 L34.375,103 L34.375,128 L33.55,128 L33.55,103 Z M28,104.622419 L28.825,104.622419 L28.825,128 L28,128 L28,104.622419 Z M39.175,104.548673 L40,104.548673 L40,128 L39.175,128 L39.175,104.548673 Z" id="Shape" fill="#000000" fill-rule="nonzero" opacity="0.1"></path>
                <circle id="Oval" fill="#000000" cx="95" cy="32" r="2"></circle>
                <path d="M122,76.5333333 C122,92.2666667 110.84058,105 94.8792271,105 C78.9178744,105 66,92.2666667 66,76.5333333 C66,60.8 78.8502415,48 94.8115942,48 C110.772947,48 122,60.8 122,76.5333333 Z" id="Path" fill="#FFFFFF"></path>
                <path d="M72.1465677,62 C70.1280148,66.137224 69,70.9526814 69,76.0394322 C69,92.0457413 80.3395176,105 94.3506494,105 C96.6660482,105 98.8627087,104.660883 101,103.98265 C95.9536178,86.4842271 85.6233766,71.6309148 72.1465677,62 Z" id="Path" fill="#29B6F6" opacity="0.25"></path>
                <g id="Group" transform="translate(69.000000, 62.000000)" opacity="0.29">
                    <g>
                        <path d="M6.13344828,1.74794521 C3.50482759,5.12328767 1.75241379,9.22191781 1.12655172,13.6821918 C-0.81362069,27.7863014 9.57568966,40.7452055 24.2208621,42.5534247 C26.5991379,42.8547945 28.9774138,42.8547945 31.2931034,42.5534247 C28.1012069,26.4 19.0262069,11.9945205 6.13344828,1.74794521 Z" id="Path" fill="#FFFFFF"></path>
                        <path d="M27.6631034,43.6383562 C26.4739655,43.6383562 25.2848276,43.5780822 24.0956897,43.3972603 C16.7731034,42.4931507 10.2641379,38.8767123 5.75793103,33.2109589 C1.25172414,27.5452055 -0.688448276,20.5534247 0.250344828,13.5013699 C0.876206897,9.04109589 2.62862069,4.76164384 5.38241379,1.14520548 L5.94568966,0.361643836 L6.69672414,0.964383562 C19.9024138,11.4520548 28.9774138,26.1589041 32.1693103,42.3123288 L32.357069,43.2767123 L31.3556897,43.3972603 C30.1665517,43.5780822 28.9148276,43.6383562 27.6631034,43.6383562 Z M6.3212069,3.0739726 C4.06810345,6.26849315 2.62862069,9.94520548 2.06534483,13.8027397 C1.18913793,20.3726027 3.00413793,26.8821918 7.19741379,32.1863014 C11.3906897,37.430137 17.4615517,40.8054795 24.3460345,41.6493151 C26.2862069,41.890411 28.2263793,41.9506849 30.1665517,41.769863 C26.912069,26.7013699 18.5255172,13.0191781 6.3212069,3.0739726 Z" id="Shape" fill="#000000" fill-rule="nonzero"></path>
                    </g>
                </g>
                <g id="Group" opacity="0.25" transform="translate(66.000000, 48.000000)" fill="#29B6F6">
                    <circle id="Oval" cx="29.5" cy="29.5" r="29.5"></circle>
                </g>
                <g id="Group" opacity="0.25" transform="translate(67.000000, 49.000000)" fill="#29B6F6">
                    <circle id="Oval" cx="28.5" cy="28.5" r="28.5"></circle>
                </g>
                <path d="M95,107 C78.4968017,107 65,93.5528282 65,76.9679829 C65,60.3831377 78.4968017,47 95,47 C111.503198,47 125,60.4471718 125,77.0320171 C125,93.6168623 111.567164,107 95,107 Z M95.1463415,52 C81.2702515,52 70,63.2046632 70,77 C70,90.7953368 81.2702515,102 95.1463415,102 C109.022431,102 120.292683,90.7953368 120.292683,77 C120.292683,63.2046632 109.022431,52 95.1463415,52 Z" id="Shape" fill="#455D82" fill-rule="nonzero"></path>
                <path d="M48.4054054,59 C46.8990991,69 46.6216216,76 47.572973,80 C49,86 35.3459459,89 39,77.5 C41,73.7666667 42.6666667,71.2666667 44,70 L45,59 L48.4054054,59 Z" id="Path-8" fill="#FFFFFF"></path>
                <circle id="Oval" fill="#0D0D0D" cx="43" cy="80" r="2"></circle>
            </g>
        </g>
    </g>
</svg>