<?xml version="1.0" encoding="UTF-8"?>
<svg width="412px" height="1904px" viewBox="0 0 412 1904" version="1.1" xmlns="http://www.w3.org/2000/svg" xmlns:xlink="http://www.w3.org/1999/xlink">
    <!-- Generator: Sketch 52.6 (67491) - http://www.bohemiancoding.com/sketch -->
    <title>Group 16</title>
    <desc>Created with Sketch.</desc>
    <g id="Page-2" stroke="none" stroke-width="1" fill="none" fill-rule="evenodd">
        <g id="Pixel-2" transform="translate(0.000000, -1131.000000)">
            <g id="Group-16" transform="translate(-2.000000, 1131.000000)">
                <path d="M413.949105,412.458265 L413.949105,1039 C414.526369,961.66237 410.193036,904.66237 400.949105,868 C397.081925,852.66237 383.415258,829.329036 359.949105,798 C282.840741,693.446286 163.174074,587.112952 0.949104892,479 L0.949104892,0 C10.2824382,143.35921 147.949105,280.845298 413.949105,412.458265 Z" id="Path-5-Copy" fill="#914347" transform="translate(207.474552, 519.500000) scale(-1, 1) translate(-207.474552, -519.500000) "></path>
                <path d="M414,1463.40832 L414,1904 L1,1463.40832 L1,959 C10.3333333,1163.64327 148,1331.77938 414,1463.40832 Z" id="Path-5-Copy-2" fill="#914347"></path>
                <path d="M3.03832126,147 C4.69053909,150.559249 5.69053909,161.725916 6.03832126,180.5 C6.55999452,208.661126 4.96867696,242.926703 6.03832126,244.8 C37.8678379,300.543902 275.059598,501.747795 412.038321,554.112987 L415.038321,627.312987 C177.704988,459.002565 40.3716546,345.32174 3.03832126,286.270512 C1.65389291,234.620776 1.65389291,199.530605 3.03832126,181 L3.03832126,147 Z" id="Path-6" fill="#A04B49" transform="translate(208.519161, 387.156494) scale(-1, 1) translate(-208.519161, -387.156494) "></path>
                <path d="M3.03832126,1181 C4.69053909,1184.55925 5.69053909,1195.72592 6.03832126,1214.5 C6.55999452,1242.66113 13.968677,1263.2267 15.0383213,1265.1 C46.8678379,1320.8439 275.059598,1595.63481 412.038321,1648 L412.038321,1721 C176.012774,1508.7179 39.3333333,1373.05123 2,1314 C1.30778582,1287.86394 1.65389291,1265.53061 3.03832126,1247 L3.03832126,1181 Z" id="Path-6-Copy" fill="#A04B49"></path>
            </g>
        </g>
    </g>
</svg>