<?xml version="1.0" encoding="UTF-8"?>
<svg width="412px" height="880px" viewBox="0 0 412 880" version="1.1" xmlns="http://www.w3.org/2000/svg" xmlns:xlink="http://www.w3.org/1999/xlink">
    <!-- Generator: Sketch 52.6 (67491) - http://www.bohemiancoding.com/sketch -->
    <title>Group 13</title>
    <desc>Created with Sketch.</desc>
    <g id="Page-2" stroke="none" stroke-width="1" fill="none" fill-rule="evenodd">
        <g id="Pixel-2" transform="translate(0.000000, -139.000000)">
            <g id="Group-13" transform="translate(-9.000000, 139.000000)">
                <path d="M215,256.962925 C50.5776698,331.550444 119.244336,420.730541 421,524.503217 L421,1001 L421,879.745357 C288.522122,784.062811 151.188788,690.331431 9,598.551217 L9,199 L215,256.962925 Z" id="Path-5" fill="#914347"></path>
                <path d="M20.0015511,287.08983 C6.54975978,303.895197 -0.116906882,315.495197 0.00155107176,321.88983 C0.523224329,350.050957 16.1443063,379.116533 17.2139506,380.98983 C49.0434672,436.733733 281.022828,605.747795 418.001551,658.112987 L421.001551,731.312987 C183.668218,577.682111 46.3348844,471.341059 9.00155107,412.28983 C7.61712272,345.960549 7.61712272,303.530605 9.00155107,285 L20.0015511,287.08983 Z" id="Path-6" fill="#A04B49"></path>
                <path d="M252,2.05946371e-14 C188.666667,1.72907114 164.333333,5.3957378 179,11 C201,19.4063933 424,42.25 379,73 C349,93.5 225.666667,127.5 9,175 L9,371 C248.333333,238.203218 385.666667,158.203218 421,131 L421,38.62 C405.666667,31.3820091 335.666667,21.8420091 211,10 C203,7.33333333 227,4 283,0 L252,2.05946371e-14 Z" id="Path-2" fill="#914347"></path>
                <path d="M256.069478,0 C194.718892,4.3029783 175.046694,7.9721846 197.052882,11.0076189 C230.062164,15.5607704 428.117859,36.3584988 415.114202,66.0457134 C406.445098,85.8371898 271.073697,145.545183 9,245.169694 L9,292 C223.72705,186.157594 361.060383,115.342526 421,79.5547952 L421,55.1391322 C400.40478,42.1838653 367.767555,32.6894752 323.088324,26.655962 C256.069478,17.6056922 191.051194,10.7075961 193.051757,8.00554102 C194.385465,6.20417097 215.391372,3.5356573 256.069478,0 Z" id="Path-3" fill="#A04B49"></path>
            </g>
        </g>
    </g>
</svg>