<?xml version="1.0" encoding="UTF-8"?>
<svg width="866px" height="985px" viewBox="0 0 866 985" version="1.1" xmlns="http://www.w3.org/2000/svg" xmlns:xlink="http://www.w3.org/1999/xlink">
    <!-- Generator: Sketch 52.6 (67491) - http://www.bohemiancoding.com/sketch -->
    <title>Group 10 Copy</title>
    <desc>Created with Sketch.</desc>
    <defs>
        <polygon id="path-1" points="0.000172298058 0.054938304 371.306846 0.054938304 371.306846 315.517852 0.000172298058 315.517852"></polygon>
        <polygon id="path-3" points="0.0556287463 0.352042224 111.131279 0.352042224 111.131279 36.456624 0.0556287463 36.456624"></polygon>
    </defs>
    <g id="Page-2" stroke="none" stroke-width="1" fill="none" fill-rule="evenodd">
        <g id="Desktop-HD" transform="translate(-1054.000000, -5400.000000)">
            <g id="Group-10-Copy" transform="translate(1054.000000, 5400.000000)">
                <polygon id="Rectangle" fill="#4A90E2" points="254 74 866 74 866 985 254 985"></polygon>
                <polygon id="Rectangle-Copy-22" fill="#E3E3E3" points="698 104.905842 854 78 854 973 698 973"></polygon>
                <polygon id="Rectangle-Copy-23" fill="#FFFFFF" points="660 89.3868406 816 62 816 973 660 973"></polygon>
                <polygon id="Rectangle-Copy-21" fill="#E3E3E3" points="624 61.25865 788 33 788 973 624 973"></polygon>
                <polygon id="Rectangle" fill="#FFFFFF" points="587 45.7396483 751 17 751 973 587 973"></polygon>
                <path d="M5.5639355,51.9881724 L719,0 L719,985 L5,985 C2.23857625,985 3.38176876e-16,982.761424 0,980 L-8.8817842e-16,57.9723054 C2.91607143e-15,54.8277851 2.42773096,52.216708 5.5639355,51.9881724 Z" id="Rectangle" fill="#4A90E2"></path>
                <path d="M361.5,780 L361.5,780 C397.674651,780 427,809.325349 427,845.5 L427,985 L296,985 L296,845.5 C296,809.325349 325.325349,780 361.5,780 Z" id="Rectangle" fill="#2478CC"></path>
                <circle id="Oval" fill="#FFFFFF" cx="404.5" cy="900.5" r="10.5"></circle>
                <path d="M332,755 L370,755 C401.480231,755 427,780.519769 427,812 L275,812 L275,812 C275,780.519769 300.519769,755 332,755 Z" id="Rectangle-Copy-24" fill="#B37D23"></path>
                <path d="M316,755 L337,755 C368.480231,755 394,780.519769 394,812 L259,812 L259,812 C259,780.519769 284.519769,755 316,755 Z" id="Rectangle" fill="#F5A623"></path>
                <rect id="Rectangle" fill="#8B572A" x="374" y="812" width="12" height="173"></rect>
                <rect id="Rectangle-Copy-25" fill="#8B572A" x="271" y="812" width="12" height="173"></rect>
                <g id="Group-7" transform="translate(173.000000, 94.000000)">
                    <g id="Group-3">
                        <mask id="mask-2" fill="white">
                            <use xlink:href="#path-1"></use>
                        </mask>
                        <g id="Clip-2"></g>
                        <path d="M64.5070505,315.517852 C58.0766368,307.107714 52.6691741,299.985573 47.2083534,292.90311 C31.8976267,273.039861 16.542689,253.211711 1.30513921,233.291998 C0.408723073,232.116929 0.0565595897,230.250552 0.0535105552,228.70465 C-0.0166172379,197.614148 -0.0349114448,166.52212 0.106868659,135.433144 C0.114491245,133.71327 1.198423,131.559994 2.47901749,130.349825 C43.7278805,91.4214582 85.0240036,52.5465039 126.472578,13.8348384 C128.850825,11.6128892 132.454784,9.94947946 135.685236,9.52065548 C161.271209,6.13431946 186.895295,3.05472231 212.534626,0.0850017648 C214.380816,-0.128647195 216.836813,0.790043333 218.285105,2.03073336 C223.113251,6.16484074 227.744734,10.5522747 232.213094,15.0801066 C262.111926,45.3801074 298.111877,67.9597503 331.529295,93.8036441 C343.371744,102.961554 355.453544,111.814251 367.555161,120.627271 C370.258131,122.595894 371.320719,124.677445 371.306998,128.045468 C371.180463,158.388199 371.261263,188.729403 371.171316,219.070608 C371.165218,220.999552 370.790187,223.337483 369.683388,224.794874 C349.303641,251.609344 328.785163,278.31699 307.486133,306.103564 C307.486133,303.063644 307.403809,301.134699 307.498329,299.213385 C308.937473,270.036567 310.347652,240.858223 311.91638,211.689036 C312.135911,207.622075 311.388897,204.801909 307.681271,202.286956 C270.826067,177.280871 234.066907,152.134388 197.422086,126.820039 C193.665676,124.22573 191.246267,124.390545 187.599622,126.903972 C147.074904,154.835522 106.46329,182.646512 65.743434,210.291161 C61.5327174,213.149479 59.9014839,216.105465 60.1987648,221.243723 C61.8299982,249.472855 63.1182153,277.721825 64.4902808,305.966218 C64.6152912,308.548318 64.5070505,311.141101 64.5070505,315.517852" id="Fill-1" fill="#2C4AB3" mask="url(#mask-2)"></path>
                    </g>
                    <g id="Group-6" transform="translate(140.276137, 341.021739)">
                        <mask id="mask-4" fill="white">
                            <use xlink:href="#path-3"></use>
                        </mask>
                        <g id="Clip-5"></g>
                        <path d="M0.193042142,10.3161028 C2.11492964,13.0447409 2.94364753,14.3880273 3.94456654,15.6163351 C8.50635871,21.2068182 14.2674087,22.5374849 20.7572384,18.9226704 C24.4072871,16.8881104 27.7636715,14.2365921 30.7572034,11.4252255 C45.1344594,-2.07494277 62.063982,-3.32568541 78.358513,8.19460776 C80.8846419,9.98238451 83.1401691,12.0898578 85.5555973,14.015048 C95.0281964,21.5727866 102.914085,20.8254258 111.118239,10.5530709 C111.208952,18.911453 110.984475,25.9854403 105.13425,31.6249995 C99.576151,36.9869276 92.4405671,37.2926024 85.1727573,35.3996623 C80.2927006,34.1264848 75.4556941,32.5476326 70.8385516,30.6294533 C60.2989205,26.2504519 50.1790297,26.8603992 39.6978241,31.116009 C33.770723,33.5235483 27.2808933,35.5651193 20.8863892,36.0614902 C8.40488305,37.0317973 1.90429077,31.6404235 0.253005032,20.3038156 C-0.152897608,17.5148839 0.193042142,14.6348106 0.193042142,10.3161028" id="Fill-4" fill="#2C4AB3" mask="url(#mask-4)"></path>
                    </g>
                </g>
            </g>
        </g>
    </g>
</svg>