<?xml version="1.0" encoding="UTF-8"?>
<svg width="211px" height="241px" viewBox="0 0 211 241" version="1.1" xmlns="http://www.w3.org/2000/svg" xmlns:xlink="http://www.w3.org/1999/xlink">
    <!-- Generator: Sketch 52.6 (67491) - http://www.bohemiancoding.com/sketch -->
    <title>Group 10</title>
    <desc>Created with Sketch.</desc>
    <defs>
        <polygon id="path-1" points="4.20422809e-05 0.0133712274 90.6022209 0.0133712274 90.6022209 76.7927048 4.20422809e-05 76.7927048"></polygon>
        <polygon id="path-3" points="0.242217132 0.0856822343 27.3456781 0.0856822343 27.3456781 8.87304075 0.242217132 8.87304075"></polygon>
    </defs>
    <g id="Page-2" stroke="none" stroke-width="1" fill="none" fill-rule="evenodd">
        <g id="Pixel-2" transform="translate(-192.000000, -2203.000000)">
            <g id="Group-10" transform="translate(192.000000, 2203.665782)">
                <polygon id="Rectangle" fill="#4A90E2" points="62 18 211 18 211 240 62 240"></polygon>
                <polygon id="Rectangle-Copy-22" fill="#E3E3E3" points="170 25.5536018 208 19 208 237 170 237"></polygon>
                <polygon id="Rectangle-Copy-23" fill="#FFFFFF" points="161 21.6738514 199 15 199 237 161 237"></polygon>
                <polygon id="Rectangle-Copy-21" fill="#E3E3E3" points="152 14.8842881 192 8 192 237 152 237"></polygon>
                <polygon id="Rectangle" fill="#FFFFFF" points="143 11.0045377 183 4 183 237 143 237"></polygon>
                <path d="M5.56346998,12.3601116 L175,0 L175,240 L5,240 C2.23857625,240 3.38176876e-16,237.761424 0,235 L1.77635684e-15,18.3442107 C1.39128617e-15,15.1998701 2.42746237,12.5888781 5.56346998,12.3601116 Z" id="Rectangle" fill="#4A90E2"></path>
                <path d="M88,190 L88,190 C96.836556,190 104,197.163444 104,206 L104,240 L72,240 L72,206 C72,197.163444 79.163444,190 88,190 Z" id="Rectangle" fill="#2478CC"></path>
                <circle id="Oval" fill="#FFFFFF" cx="98.5" cy="219.5" r="2.5"></circle>
                <path d="M81,184 L90,184 C97.7319865,184 104,190.268014 104,198 L67,198 L67,198 C67,190.268014 73.2680135,184 81,184 Z" id="Rectangle-Copy-24" fill="#B37D23"></path>
                <path d="M77,184 L82,184 C89.7319865,184 96,190.268014 96,198 L63,198 L63,198 C63,190.268014 69.2680135,184 77,184 Z" id="Rectangle" fill="#F5A623"></path>
                <rect id="Rectangle" fill="#8B572A" x="91" y="198" width="3" height="42"></rect>
                <rect id="Rectangle-Copy-25" fill="#8B572A" x="66" y="198" width="3" height="42"></rect>
                <g id="Group-7" transform="translate(42.000000, 23.000000)">
                    <g id="Group-3">
                        <mask id="mask-2" fill="white">
                            <use xlink:href="#path-1"></use>
                        </mask>
                        <g id="Clip-2"></g>
                        <path d="M15.7403024,76.7927048 C14.1712234,74.7457928 12.8517538,73.0123617 11.5192642,71.2885876 C7.78330875,66.4541461 4.0365654,61.6282472 0.318465745,56.780063 C0.0997321179,56.4940673 0.0138010503,56.039817 0.0130570583,55.6635655 C-0.004054756,48.0965651 -0.00851870757,40.5291932 0.0260769171,32.9625641 C0.0279368969,32.5439704 0.292426027,32.0198926 0.604902637,31.7253542 C10.6699974,22.2507253 20.7466241,12.7890962 30.8604504,3.36720935 C31.4407641,2.82641748 32.3201625,2.42156643 33.108422,2.31719657 C39.3516302,1.49300897 45.6041384,0.743477387 51.8603665,0.0206882602 C52.3108536,-0.0313109576 52.9101391,0.192285679 53.2635353,0.494252565 C54.4416465,1.50043743 55.5717702,2.56827851 56.6620904,3.6702905 C63.9576752,11.0448939 72.7419879,16.5404683 80.8961395,22.8305166 C83.7858041,25.0594259 86.7338721,27.2140506 89.6867761,29.3590184 C90.3463249,29.838154 90.6056061,30.344775 90.6022581,31.1645055 C90.5713825,38.5495087 90.5910983,45.9341404 90.5691505,53.3187722 C90.5676625,53.7882509 90.4761515,54.3572709 90.2060824,54.7119798 C85.2332404,61.2382531 80.2265467,67.7385267 75.0293911,74.5013964 C75.0293911,73.7615218 75.0093033,73.2920432 75.0323671,72.8244217 C75.3835313,65.7231856 75.7276275,58.6215782 76.1104114,51.5221992 C76.1639788,50.532357 75.9817008,49.8459673 75.0770066,49.2338622 C66.0840042,43.1477252 57.1144375,37.0274173 48.1727705,30.8662528 C47.2561725,30.2348338 46.6658149,30.2749474 45.7760005,30.8866811 C35.8876038,37.684836 25.9780033,44.4536484 16.0419911,51.1819758 C15.0145383,51.877651 14.6165026,52.5970974 14.6890418,53.8476785 C15.0870775,60.7182609 15.4014141,67.5936718 15.7362105,74.4679684 C15.7667141,75.096416 15.7403024,75.7274637 15.7403024,76.7927048" id="Fill-1" fill="#2C4AB3" mask="url(#mask-2)"></path>
                    </g>
                    <g id="Group-6" transform="translate(34.000000, 83.000000)">
                        <mask id="mask-4" fill="white">
                            <use xlink:href="#path-3"></use>
                        </mask>
                        <g id="Clip-5"></g>
                        <path d="M0.275747241,2.51079752 C0.744705133,3.17491049 0.946919776,3.50184791 1.19115305,3.80080113 C2.3042715,5.16144781 3.71001968,5.48531379 5.29359669,4.60551768 C6.18424152,4.11033375 7.00322958,3.46499067 7.73367839,2.78074272 C11.2418586,-0.505012527 15.3728149,-0.809426079 19.3488275,1.9944548 C19.9652257,2.42957507 20.5155947,2.94250508 21.104981,3.41106988 C23.4163806,5.25051948 25.3406087,5.06862215 27.3424961,2.56847228 C27.3646309,4.60278751 27.3098566,6.32449869 25.8823488,7.69708984 C24.5261226,9.00210937 22.7849757,9.0765064 21.0115646,8.61579082 C19.8207867,8.30591694 18.6405135,7.92164602 17.513889,7.45478757 C14.9421239,6.38899887 12.4727793,6.53745166 9.91527051,7.57320854 C8.46900437,8.1591705 6.88542736,8.65606078 5.32511066,8.77687064 C2.27951052,9.01303003 0.693307348,7.70084381 0.290378727,4.94166941 C0.19133482,4.26288179 0.275747241,3.56191157 0.275747241,2.51079752" id="Fill-4" fill="#2C4AB3" mask="url(#mask-4)"></path>
                    </g>
                </g>
            </g>
        </g>
    </g>
</svg>