<?xml version="1.0" encoding="UTF-8"?>
<svg width="1183px" height="781px" viewBox="0 0 1183 781" version="1.1" xmlns="http://www.w3.org/2000/svg" xmlns:xlink="http://www.w3.org/1999/xlink">
    <!-- Generator: Sketch 52.6 (67491) - http://www.bohemiancoding.com/sketch -->
    <title>Star Events Copy</title>
    <desc>Created with Sketch.</desc>
    <defs>
        <linearGradient x1="1.66375237%" y1="98.3444576%" x2="75.9112321%" y2="24.0925407%" id="linearGradient-1">
            <stop stop-color="#FFFFFF" offset="0%"></stop>
            <stop stop-color="#FFFFFF" stop-opacity="0" offset="100%"></stop>
        </linearGradient>
        <linearGradient x1="98.3436602%" y1="98.341542%" x2="24.0961805%" y2="24.0896251%" id="linearGradient-2">
            <stop stop-color="#FFFFFF" offset="0%"></stop>
            <stop stop-color="#FFFFFF" stop-opacity="0" offset="100%"></stop>
        </linearGradient>
        <linearGradient x1="50%" y1="98.0197019%" x2="50%" y2="9.25486234%" id="linearGradient-3">
            <stop stop-color="#FFFFFF" offset="0%"></stop>
            <stop stop-color="#FFFFFF" stop-opacity="0" offset="100%"></stop>
        </linearGradient>
    </defs>
    <g id="Page-2" stroke="none" stroke-width="1" fill="none" fill-rule="evenodd">
        <g id="Desktop-HD" transform="translate(-737.000000, -490.000000)">
            <g id="Star-Events-Copy" transform="translate(737.000000, 428.000000)">
                <polygon id="Path" fill="#6299FB" transform="translate(226.917178, 684.937500) rotate(180.000000) translate(-226.917178, -684.937500) " points="198.03681 567.403846 255.797546 567.403846 255.797546 802.471154 198.03681 802.471154"></polygon>
                <path d="M301.180982,563.350962 L255.797546,563.350962 L255.797546,482.293269 L301.180982,482.293269 L301.180982,563.350962 Z M262.458458,556.258413 L294.52007,556.258413 L294.52007,489.487139 L262.490328,489.487139 L262.458458,556.258413 Z" id="Shape" fill="#424242" fill-rule="nonzero"></path>
                <path d="M297.734738,571.340161 C296.511101,571.381587 295.373916,570.671758 294.811378,569.515404 L256.203948,495.612764 C255.326488,493.905128 255.916885,491.764361 257.522638,490.831226 C259.128391,489.898092 261.141434,490.525949 262.018894,492.233585 L300.626324,566.170017 C301.322223,567.252206 301.366711,568.664789 300.74046,569.794069 C300.114209,570.923349 298.930254,571.565499 297.702963,571.441536 L297.734738,571.340161 Z" id="Path" fill="#424242"></path>
                <path d="M259.275565,563.335761 C258.048274,563.459775 256.864319,562.817358 256.238068,561.687606 C255.611817,560.557855 255.656305,559.144683 256.352204,558.062043 L294.959633,484.128581 C295.837094,482.420233 297.850136,481.792114 299.455889,482.725637 C301.061642,483.659161 301.65204,485.800821 300.774579,487.509169 L262.16715,561.510243 C261.609646,562.655887 260.487873,563.364086 259.275565,563.335761 Z" id="Path" fill="#424242"></path>
                <path d="M301.180982,640.355769 L255.797546,640.355769 L255.797546,559.298077 L301.180982,559.298077 L301.180982,640.355769 Z M262.490328,633.229447 L294.52007,633.229447 L294.52007,566.458173 L262.490328,566.458173 L262.490328,633.229447 Z" id="Shape" fill="#424242" fill-rule="nonzero"></path>
                <path d="M297.734691,640.27299 C296.511037,640.314417 295.373836,639.604583 294.81129,638.448219 L256.203331,564.511185 C255.635705,563.406529 255.665367,562.063749 256.281142,560.988656 C256.896917,559.913563 258.005254,559.26949 259.188655,559.299053 C260.372055,559.328615 261.450731,560.027323 262.018357,561.131979 L300.626316,635.069013 C301.322225,636.15121 301.366713,637.563804 300.740454,638.693094 C300.114194,639.822383 298.930223,640.464538 297.702915,640.340574 L297.734691,640.27299 Z" id="Path" fill="#424242"></path>
                <path d="M259.275053,636.287822 C258.047943,636.410706 256.864162,635.774146 256.238003,634.654696 C255.611844,633.535246 255.656326,632.13496 256.352122,631.062191 L294.953869,557.769366 C295.521403,556.674335 296.599905,555.981715 297.783115,555.95241 C298.966325,555.923105 300.074484,556.561566 300.69016,557.627292 C301.305836,558.693017 301.335493,560.024099 300.767959,561.11913 L262.166212,634.47895 C261.608791,635.614148 260.487183,636.315889 259.275053,636.287822 Z M301.180982,489.73567 L255.939099,489.73567 L255.939099,409.341346 L301.180982,409.341346 L301.180982,489.73567 Z M262.579235,482.701166 L294.540846,482.701166 L294.540846,416.442845 L262.611006,416.442845 L262.579235,482.701166 Z" id="Shape" fill="#424242" fill-rule="nonzero"></path>
                <path d="M297.734738,494.436716 C296.511101,494.478176 295.373916,493.767756 294.811378,492.610436 L256.203948,418.612307 C255.326488,416.903246 255.916885,414.760692 257.522638,413.826779 C259.128391,412.892866 261.141434,413.521248 262.018894,415.230309 L300.626324,489.160798 C301.322223,490.24389 301.366711,491.657651 300.74046,492.787874 C300.114209,493.918097 298.930254,494.560782 297.702963,494.436716 L297.734738,494.436716 Z" id="Path" fill="#424242"></path>
                <path d="M259.275053,490.383132 C258.047943,490.507094 256.864162,489.86495 256.238003,488.735679 C255.611844,487.606409 255.656326,486.193839 256.352122,485.111659 L294.953869,411.175877 C295.8312,409.468256 297.843946,408.840404 299.449463,409.77353 C301.05498,410.706657 301.64529,412.847405 300.767959,414.555026 L262.166212,488.558392 C261.608791,489.703548 260.487183,490.411445 259.275053,490.383132 Z M301.180982,717.360577 L255.939099,717.360577 L255.939099,631.0909 L301.180982,631.0909 L301.180982,717.360577 Z M262.579235,710.264364 L294.540846,710.264364 L294.540846,638.220905 L262.611006,638.220905 L262.579235,710.264364 Z" id="Shape" fill="#424242" fill-rule="nonzero"></path>
                <path d="M297.737606,717.348696 C296.481691,717.384274 295.323838,716.639909 294.784055,715.449907 L256.197351,637.432995 C255.630039,636.326177 255.668763,634.985974 256.298939,633.917225 C256.929114,632.848476 258.055001,632.213552 259.252489,632.251621 C260.449977,632.289689 261.537139,632.994969 262.104452,634.101786 L300.691156,712.251946 C301.33409,713.32095 301.344861,714.679537 300.718963,715.759607 C300.093066,716.839678 298.938327,717.455163 297.737606,717.348696 Z" id="Path" fill="#424242"></path>
                <path d="M259.240922,717.348677 C258.040201,717.455312 256.885462,716.838861 256.259564,715.757097 C255.633667,714.675333 255.644437,713.314616 256.287372,712.243936 L294.874076,634.10469 C295.441389,632.996137 296.528551,632.289752 297.726039,632.251623 C298.923527,632.213494 300.049414,632.849415 300.679589,633.919839 C301.309764,634.990264 301.348489,636.332569 300.781176,637.441122 L262.194472,715.580368 C261.618395,716.72035 260.468133,717.409019 259.240922,717.348677 Z" id="Path" fill="#424242"></path>
                <path d="M301.180982,798.418269 L255.797546,798.418269 L255.797546,713.307692 L301.180982,713.307692 L301.180982,798.418269 Z M262.458458,791.425616 L294.52007,791.425616 L294.52007,720.267047 L262.490328,720.267047 L262.458458,791.425616 Z" id="Shape" fill="#424242" fill-rule="nonzero"></path>
                <path d="M297.737606,798.417048 C296.481691,798.452617 295.323838,797.70845 294.784055,796.518765 L256.197351,718.489308 C255.630039,717.382785 255.668763,716.042938 256.298939,714.974474 C256.929114,713.906009 258.055001,713.271254 259.252489,713.309312 C260.449977,713.347371 261.537139,714.052463 262.104452,715.158986 L300.691156,793.155139 C301.33409,794.223858 301.344861,795.582083 300.718963,796.661866 C300.093066,797.741649 298.938327,798.356971 297.737606,798.250532 L297.737606,798.417048 Z" id="Path" fill="#424242"></path>
                <path d="M251.306129,798.406296 C249.994959,798.51359 248.734,797.893328 248.050529,796.804875 C247.367058,795.716423 247.37882,794.347294 248.080895,793.269994 L290.217018,714.479799 C291.174678,712.75553 293.395001,712.109237 295.176249,713.036263 C296.957497,713.96329 297.625146,716.11259 296.667486,717.836859 L254.531363,796.35849 C253.983749,797.610241 252.710359,798.418758 251.306129,798.406296 Z M569.147749,420.669917 L486.12398,420.669917 L486.12398,372.865385 L569.355828,372.865385 L569.147749,420.669917 Z M493.268047,413.620092 L561.864962,413.620092 L561.864962,379.88164 L493.268047,379.88164 L493.268047,413.620092 Z" id="Shape" fill="#424242" fill-rule="nonzero"></path>
                <path d="M491.229662,413.293764 C489.346519,413.732519 487.43065,412.693372 486.950448,410.972764 C486.470247,409.252156 487.607556,407.501647 489.490698,407.062892 L564.095628,369.210345 C565.210263,368.653826 566.565173,368.682907 567.649978,369.286633 C568.734783,369.89036 569.384674,370.977012 569.354844,372.137257 C569.325014,373.297503 568.619995,374.355074 567.50536,374.911593 L492.90043,412.76414 C492.400741,413.065556 491.826294,413.247653 491.229662,413.293764 Z" id="Path" fill="#424242"></path>
                <path d="M565.035579,413.169839 C564.427687,413.171915 563.829228,413.032532 563.2966,412.764826 L488.690976,374.911688 C487.576331,374.35516 486.871305,373.297573 486.841475,372.137309 C486.811645,370.977046 487.461542,369.890377 488.546357,369.286641 C489.631172,368.682905 490.986095,368.653823 492.10074,369.210351 L566.706363,407.063489 C567.924554,407.347319 568.884485,408.203396 569.22456,409.309244 C569.564634,410.415093 569.233187,411.602709 568.35507,412.424729 C567.476954,413.246749 566.185575,413.578288 564.967384,413.294459 L565.035579,413.169839 Z" id="Path" fill="#424242"></path>
                <path d="M495.092025,413.394231 L412.576687,413.394231 L412.576687,368.8125 L495.092025,368.8125 L495.092025,413.394231 Z M419.865542,406.819678 L488.009458,406.819678 L488.009458,375.355746 L419.865542,375.355746 L419.865542,406.819678 Z" id="Shape" fill="#424242" fill-rule="nonzero"></path>
                <path d="M416.965823,413.293765 C415.082695,413.732514 413.166841,412.693381 412.686644,410.972797 C412.206446,409.252213 413.343746,407.501727 415.226873,407.062978 L489.831201,369.21095 C491.554263,368.350658 493.714369,368.929504 494.655932,370.503839 C495.597496,372.078173 494.963967,374.051828 493.240905,374.91212 L418.636578,412.764148 C418.136892,413.065561 417.56245,413.247655 416.965823,413.293765 Z" id="Path" fill="#424242"></path>
                <path d="M492.141596,413.169182 C491.522516,413.171257 490.91304,413.031899 490.370609,412.764241 L414.461233,374.917774 C413.326072,374.361344 412.608069,373.303943 412.57769,372.143884 C412.54731,370.983825 413.20917,369.897347 414.313952,369.293718 C415.418734,368.690088 416.798596,368.661012 417.933757,369.217442 L493.912583,407.063909 C495.830405,407.502593 496.988658,409.252821 496.499614,410.973153 C496.010569,412.693484 494.059418,413.732464 492.141596,413.29378 L492.141596,413.169182 Z M647.745399,413.169182 L564.404821,413.169182 L564.404821,368.8125 L647.745399,368.8125 L647.745399,413.169182 Z M571.766572,406.627818 L640.453098,406.627818 L640.453098,375.322715 L571.801298,375.322715 L571.766572,406.627818 Z" id="Shape" fill="#424242" fill-rule="nonzero"></path>
                <path d="M569.619197,413.293765 C567.736069,413.732514 565.820216,412.693381 565.340018,410.972797 C564.859821,409.252213 565.99712,407.501727 567.880248,407.062978 L642.484575,369.21095 C644.207637,368.350658 646.367743,368.929504 647.309307,370.503839 C648.25087,372.078173 647.617341,374.051828 645.89428,374.91212 L571.358146,412.888764 C570.825527,413.156462 570.227078,413.29584 569.619197,413.293765 Z" id="Path" fill="#424242"></path>
                <path d="M639.236793,413.169182 C638.625032,413.171257 638.022762,413.031899 637.486743,412.764241 L562.440495,374.917774 C560.706435,374.057608 560.068861,372.084243 561.016436,370.51014 C561.96401,368.936037 564.137904,368.357276 565.871965,369.217442 L640.952528,407.063909 C642.847677,407.502593 643.992236,409.252821 643.508973,410.973153 C643.02571,412.693484 641.097627,413.732464 639.202478,413.29378 L639.236793,413.169182 Z M417.632463,413.169182 L330.06135,413.169182 L330.06135,368.8125 L417.632463,368.8125 L417.632463,413.169182 Z M337.267437,406.627818 L410.460691,406.627818 L410.460691,375.322715 L337.267437,375.322715 L337.267437,406.627818 Z" id="Shape" fill="#424242" fill-rule="nonzero"></path>
                <path d="M334.327515,413.304994 C332.470288,413.718097 330.603369,412.657625 330.157635,410.936365 C329.711901,409.215104 330.856141,407.484861 332.713368,407.071758 L411.470296,369.204848 C412.587612,368.648117 413.940529,368.68612 415.019415,369.30454 C416.098301,369.92296 416.739248,371.027844 416.700818,372.202995 C416.662388,373.378145 415.950419,374.445027 414.833103,375.001757 L335.941662,412.931 C335.445909,413.179006 334.890872,413.307607 334.327515,413.304994 Z" id="Path" fill="#424242"></path>
                <path d="M412.301811,413.242664 C411.738459,413.245276 411.183426,413.116677 410.687677,412.868675 L331.93137,375.002307 C330.204163,374.141689 329.556769,372.146356 330.485375,370.545607 C331.413981,368.944857 333.566943,368.344862 335.29415,369.20548 L414.050457,407.071849 C415.907669,407.484945 417.0519,409.215164 416.606169,410.9364 C416.160439,412.657636 414.293534,413.718092 412.436322,413.304996 L412.301811,413.242664 Z" id="Path" fill="#424242"></path>
                <path d="M334.187117,413.394231 L247.546012,413.394231 L247.546012,368.8125 L334.187117,368.8125 L334.187117,413.394231 Z M254.67557,406.819678 L327.057559,406.819678 L327.057559,375.355746 L254.67557,375.355746 L254.67557,406.819678 Z" id="Shape" fill="#424242" fill-rule="nonzero"></path>
                <path d="M251.812144,413.304996 C249.954932,413.718092 248.088028,412.657636 247.642297,410.9364 C247.196566,409.215164 248.340797,407.484945 250.19801,407.071849 L328.954316,369.20548 C330.681524,368.344862 332.834486,368.944857 333.763092,370.545607 C334.691698,372.146356 334.044303,374.141689 332.317096,375.002307 L253.426278,412.931007 C252.930529,413.179009 252.375496,413.307608 251.812144,413.304996 Z" id="Path" fill="#424242"></path>
                <path d="M331.647458,413.24332 C331.071358,413.245932 330.503765,413.117332 329.996798,412.869326 L249.458348,375.002398 C247.692057,374.141767 247.030013,372.146405 247.979632,370.545632 C248.929251,368.944859 251.130932,368.344855 252.897223,369.205486 L333.298118,407.072413 C334.526709,407.339644 335.504668,408.1806 335.863606,409.2785 C336.222544,410.376401 335.90793,411.56445 335.038276,412.39512 C334.168622,413.22579 332.876049,413.572883 331.647458,413.305653 L331.647458,413.24332 Z M953.052147,413.24332 L870.51915,413.24332 L870.51915,368.862658 L953.052147,368.862658 L953.052147,413.24332 Z M877.809565,406.698419 L945.83051,406.698419 L945.83051,375.376392 L877.843954,375.376392 L877.809565,406.698419 Z" id="Shape" fill="#424242" fill-rule="nonzero"></path>
                <path d="M874.925945,413.293765 C873.042818,413.732514 871.126964,412.693381 870.646767,410.972797 C870.166569,409.252213 871.303869,407.501727 873.186996,407.062978 L947.791324,369.21095 C949.514386,368.350658 951.674491,368.929504 952.616055,370.503839 C953.557619,372.078173 952.92409,374.051828 951.201028,374.91212 L876.664894,412.888764 C876.132276,413.156462 875.533826,413.29584 874.925945,413.293765 Z" id="Path" fill="#424242"></path>
                <path d="M948.629641,413.169842 C948.021754,413.171918 947.423299,413.032537 946.890675,412.764835 L872.387946,374.912215 C870.664868,374.05191 870.031333,372.078224 870.972906,370.503865 C871.914478,368.929506 874.074604,368.350651 875.797682,369.210957 L950.402703,407.063576 C951.620885,407.347401 952.580808,408.203467 952.92088,409.3093 C953.260952,410.415134 952.929507,411.602734 952.051397,412.424742 C951.173288,413.246751 949.881919,413.578285 948.663738,413.29446 L948.629641,413.169842 Z" id="Path" fill="#424242"></path>
                <path d="M878.788344,413.394231 L796.273006,413.394231 L796.273006,368.8125 L878.788344,368.8125 L878.788344,413.394231 Z M803.561861,406.819678 L871.568252,406.819678 L871.568252,375.355746 L803.561861,375.355746 L803.561861,406.819678 Z" id="Shape" fill="#424242" fill-rule="nonzero"></path>
                <path d="M800.658553,413.293482 C798.776965,413.733467 796.862678,412.691407 796.382873,410.965976 C795.903068,409.240545 797.039438,407.485129 798.921025,407.045144 L873.532487,369.21146 C874.646201,368.653381 875.999993,368.682544 877.083902,369.287962 C878.167811,369.893381 878.817165,370.983079 878.78736,372.146577 C878.757555,373.310075 878.053118,374.37061 876.939403,374.928689 L802.39608,412.88734 C801.863896,413.155792 801.265936,413.295563 800.658553,413.293482 Z" id="Path" fill="#424242"></path>
                <path d="M875.895608,413.169182 C875.276619,413.171257 874.667234,413.031899 874.124882,412.764241 L798.157274,374.917774 C797.02228,374.361344 796.304383,373.303943 796.274009,372.143884 C796.243634,370.983825 796.905395,369.897347 798.010014,369.293718 C799.114633,368.690088 800.494291,368.661012 801.629285,369.217442 L877.666334,407.063909 C879.583873,407.502593 880.741955,409.252821 880.252983,410.973153 C879.76401,412.693484 877.813147,413.732464 875.895608,413.29378 L875.895608,413.169182 Z M1031.44172,413.169182 L948.113445,413.169182 L948.113445,368.8125 L1031.44172,368.8125 L1031.44172,413.169182 Z M955.474109,406.627818 L1024.15049,406.627818 L1024.15049,375.322715 L955.474109,375.322715 L955.474109,406.627818 Z" id="Shape" fill="#424242" fill-rule="nonzero"></path>
                <path d="M953.315516,413.293765 C951.432388,413.732514 949.516535,412.693381 949.036337,410.972797 C948.55614,409.252213 949.693439,407.501727 951.576567,407.062978 L1026.18089,369.21095 C1027.90396,368.350658 1030.06406,368.929504 1031.00563,370.503839 C1031.94719,372.078173 1031.31366,374.051828 1029.5906,374.91212 L954.986271,412.764148 C954.486585,413.065561 953.912143,413.247655 953.315516,413.293765 Z" id="Path" fill="#424242"></path>
                <path d="M1027.12074,413.169146 C1026.51286,413.171222 1025.9144,413.031841 1025.38178,412.764139 L950.776849,374.911593 C949.662214,374.355074 948.957195,373.297503 948.927365,372.137257 C948.897535,370.977012 949.547426,369.89036 950.632231,369.286633 C951.717035,368.682907 953.071946,368.653826 954.18658,369.210345 L1028.79151,407.062892 C1030.67465,407.501647 1031.81196,409.252156 1031.33176,410.972764 C1030.85156,412.693372 1028.93569,413.732519 1027.05255,413.293764 L1027.12074,413.169146 Z" id="Path" fill="#424242"></path>
                <path d="M1105.70552,413.394231 L1023.19018,413.394231 L1023.19018,368.8125 L1105.70552,368.8125 L1105.70552,413.394231 Z M1030.47904,406.819678 L1098.48543,406.819678 L1098.48543,375.355746 L1030.51342,375.355746 L1030.47904,406.819678 Z" id="Shape" fill="#424242" fill-rule="nonzero"></path>
                <path d="M1027.57932,413.293765 C1025.69619,413.732514 1023.78034,412.693381 1023.30014,410.972797 C1022.81994,409.252213 1023.95724,407.501728 1025.84037,407.062979 L1100.4447,369.21095 C1102.16776,368.350658 1104.32787,368.929504 1105.26943,370.503839 C1106.21099,372.078173 1105.57746,374.051828 1103.8544,374.91212 L1029.25007,412.764148 C1028.75039,413.065561 1028.17595,413.247655 1027.57932,413.293765 Z" id="Path" fill="#424242"></path>
                <path d="M1101.28575,413.169875 C1100.66872,413.17195 1100.06127,413.03259 1099.52064,412.764927 L1023.82858,374.917869 C1022.0796,374.05769 1021.43654,372.084294 1022.39227,370.510166 C1023.348,368.936039 1025.5406,368.357269 1027.28958,369.217448 L1103.01624,407.064506 C1104.25274,407.34829 1105.2271,408.204229 1105.57228,409.309901 C1105.91747,410.415572 1105.58104,411.602997 1104.68973,412.424885 C1103.79841,413.246772 1102.48763,413.578258 1101.25114,413.294475 L1101.28575,413.169875 Z M802.082367,413.169875 L713.757669,413.169875 L713.757669,368.8125 L802.082367,368.8125 L802.082367,413.169875 Z M721.025767,406.628408 L794.848879,406.628408 L794.848879,375.322817 L721.025767,375.322817 L721.025767,406.628408 Z" id="Shape" fill="#424242" fill-rule="nonzero"></path>
                <path d="M718.0238,413.304996 C716.166588,413.718092 714.299684,412.657636 713.853953,410.9364 C713.408222,409.215164 714.552454,407.484945 716.409666,407.071849 L795.165973,369.20548 C796.89318,368.344862 799.046142,368.944857 799.974748,370.545607 C800.903354,372.146356 800.25596,374.141689 798.528753,375.002307 L719.772446,412.868675 C719.24358,413.159571 718.638766,413.310483 718.0238,413.304996 Z" id="Path" fill="#424242"></path>
                <path d="M795.99813,413.242664 C795.434778,413.245277 794.879745,413.116678 794.383996,412.868676 L715.627689,375.002307 C713.900482,374.141689 713.253088,372.146356 714.181694,370.545607 C715.1103,368.944857 717.263262,368.344862 718.990469,369.20548 L797.746776,407.071849 C799.603988,407.484945 800.748219,409.215164 800.302488,410.9364 C799.856758,412.657636 797.989854,413.718092 796.132642,413.304996 L795.99813,413.242664 Z" id="Path" fill="#424242"></path>
                <path d="M726.134969,413.394231 L639.493865,413.394231 L639.493865,368.8125 L726.134969,368.8125 L726.134969,413.394231 Z M646.623423,406.819678 L719.039362,406.819678 L719.039362,375.355746 L646.589473,375.355746 L646.623423,406.819678 Z" id="Shape" fill="#424242" fill-rule="nonzero"></path>
                <path d="M643.759997,413.304996 C641.902785,413.718092 640.03588,412.657636 639.59015,410.9364 C639.144419,409.215164 640.28865,407.484945 642.145862,407.071849 L720.902169,369.20548 C722.629376,368.344862 724.782338,368.944857 725.710944,370.545607 C726.63955,372.146356 725.992156,374.141689 724.264949,375.002307 L645.508642,412.868675 C644.979776,413.159571 644.374962,413.310483 643.759997,413.304996 Z" id="Path" fill="#424242"></path>
                <path d="M723.067599,416.623485 C722.495109,416.626296 721.931073,416.48791 721.427283,416.221033 L641.393523,375.472716 C640.258092,374.873623 639.534581,373.725558 639.495527,372.460987 C639.456474,371.196416 640.107813,370.007458 641.20419,369.34198 C642.300568,368.676503 643.675418,368.635609 644.810848,369.234702 L724.844608,409.983019 C726.731945,410.427556 727.894736,412.289458 727.441776,414.141695 C726.988815,415.993931 725.091629,417.135097 723.204292,416.690561 L723.067599,416.623485 Z M1105.70552,563.350962 L1057.04281,563.350962 L1057.04281,482.86046 L1105.70552,482.86046 L1105.70552,563.350962 Z M1064.15084,556.34158 L1098.49496,556.34158 L1098.49496,490.003992 L1064.15084,490.003992 L1064.15084,556.34158 Z" id="Shape" fill="#424242" fill-rule="nonzero"></path>
                <path d="M1102.34755,571.407724 C1101.12134,571.449167 1099.98176,570.739043 1099.41804,569.582206 L1060.72934,495.614939 C1059.85004,493.906591 1060.44168,491.76493 1062.05081,490.831407 C1063.65994,489.897883 1065.67722,490.526002 1066.55653,492.234351 L1105.1497,566.167812 C1105.84706,567.250453 1105.89164,568.663624 1105.26407,569.793376 C1104.6365,570.923127 1103.45006,571.565544 1102.22018,571.44153 L1102.34755,571.407724 Z" id="Path" fill="#424242"></path>
                <path d="M1063.80747,563.33576 C1062.57758,563.459776 1061.39112,562.817353 1060.76354,561.687593 C1060.13596,560.557832 1060.18055,559.144649 1060.87792,558.062 L1099.47162,484.127936 C1100.04044,483.022819 1101.12138,482.32382 1102.30727,482.294245 C1103.49317,482.26467 1104.60384,482.909012 1105.22091,483.984553 C1105.83798,485.060094 1105.8677,486.403435 1105.29888,487.508552 L1066.60966,561.476422 C1066.0753,562.602501 1064.99506,563.319278 1063.80747,563.33576 Z" id="Path" fill="#424242"></path>
                <path d="M1105.70552,640.355769 L1060.32209,640.355769 L1060.32209,559.298077 L1105.70552,559.298077 L1105.70552,640.355769 Z M1066.95113,633.229447 L1098.98087,633.229447 L1098.98087,566.458173 L1066.95113,566.458173 L1066.95113,633.229447 Z" id="Shape" fill="#424242" fill-rule="nonzero"></path>
                <path d="M1102.34751,640.340562 C1101.12128,640.382023 1099.98168,639.671596 1099.41795,638.514268 L1060.72872,564.515535 C1060.1599,563.409958 1060.18963,562.066057 1060.8067,560.990066 C1061.42377,559.914076 1062.53444,559.269466 1063.72033,559.299053 C1064.90622,559.328641 1065.98717,560.027931 1066.55599,561.133509 L1105.14969,635.064601 C1105.84706,636.147702 1105.89164,637.561474 1105.26407,638.691706 C1104.63649,639.821938 1103.45002,640.464629 1102.22013,640.340562 L1102.34751,640.340562 Z" id="Path" fill="#424242"></path>
                <path d="M1063.8001,636.287822 C1062.57281,636.410706 1061.38886,635.774146 1060.76261,634.654696 C1060.13636,633.535246 1060.18084,632.13496 1060.87674,631.062191 L1099.48417,557.769366 C1100.36163,556.076595 1102.37468,555.454203 1103.98043,556.379215 C1105.58618,557.304226 1106.17658,559.426358 1105.29912,561.11913 L1066.69169,634.411955 C1066.15207,635.573184 1065.02663,636.303297 1063.8001,636.287822 Z M1105.61688,489.73567 L1060.36833,489.73567 L1060.36833,409.341346 L1105.61688,409.341346 L1105.61688,489.73567 Z M1066.97767,482.701166 L1098.91221,482.701166 L1098.91221,416.442845 L1066.97767,416.442845 L1066.97767,482.701166 Z" id="Shape" fill="#424242" fill-rule="nonzero"></path>
                <path d="M1102.34755,494.436716 C1101.12134,494.478176 1099.98176,493.767756 1099.41804,492.610436 L1060.72934,418.612307 C1059.85004,416.903246 1060.44168,414.760692 1062.05081,413.826779 C1063.65994,412.892866 1065.67722,413.521248 1066.55653,415.230309 L1105.1497,489.160798 C1105.84706,490.24389 1105.89164,491.657651 1105.26407,492.787874 C1104.6365,493.918097 1103.45006,494.560782 1102.22018,494.436716 L1102.34755,494.436716 Z" id="Path" fill="#424242"></path>
                <path d="M1063.80015,490.382646 C1062.57284,490.506608 1061.38887,489.864463 1060.76261,488.73519 C1060.13635,487.605917 1060.18084,486.193344 1060.87675,485.111162 L1099.48471,411.175221 C1100.05234,410.070582 1101.13101,409.371884 1102.31441,409.342322 C1103.49781,409.312759 1104.60615,409.956823 1105.22193,411.0319 C1105.8377,412.106977 1105.86736,413.449738 1105.29974,414.554378 L1066.69178,488.490318 C1066.15215,489.661737 1065.02669,490.398256 1063.80015,490.382646 Z M1105.6175,717.360577 L1060.36833,717.360577 L1060.36833,631.090716 L1105.6175,631.090716 L1105.6175,717.360577 Z M1066.97776,710.29814 L1098.91274,710.29814 L1098.91274,638.220736 L1066.97776,638.220736 L1066.97776,710.29814 Z" id="Shape" fill="#424242" fill-rule="nonzero"></path>
                <path d="M1102.41869,717.348696 C1101.16191,717.384274 1100.00326,716.639915 1099.46311,715.449922 L1060.72282,637.433632 C1059.84523,635.722654 1060.45705,633.589921 1062.08937,632.670041 C1063.72169,631.75016 1065.75638,632.391471 1066.63397,634.102449 L1105.21536,712.251987 C1105.85874,713.320982 1105.86951,714.679558 1105.24319,715.75962 C1104.61686,716.839682 1103.46133,717.455163 1102.25978,717.348696 L1102.41869,717.348696 Z" id="Path" fill="#424242"></path>
                <path d="M1064.00517,717.317381 C1062.76659,717.528593 1061.52582,716.953478 1060.83932,715.849968 C1060.15282,714.746457 1060.14944,713.321654 1060.83068,712.214558 L1099.40069,634.104672 C1100.2773,632.391641 1102.30971,631.749561 1103.94021,632.670545 C1105.5707,633.591529 1106.18185,635.72682 1105.30524,637.43985 L1066.86221,715.549736 C1066.30167,716.656173 1065.19801,717.339008 1064.00517,717.317381 Z" id="Path" fill="#424242"></path>
                <path d="M1105.70552,798.418269 L1060.32209,798.418269 L1060.32209,713.307692 L1105.70552,713.307692 L1105.70552,798.418269 Z M1066.95113,791.292423 L1098.98087,791.292423 L1098.98087,720.267047 L1066.95113,720.267047 L1066.95113,791.292423 Z" id="Shape" fill="#424242" fill-rule="nonzero"></path>
                <path d="M1102.41864,798.417048 C1101.16184,798.452617 1100.00318,797.70845 1099.46302,796.518765 L1060.72217,718.489308 C1060.15446,717.382785 1060.19321,716.042938 1060.82383,714.974474 C1061.45445,713.906009 1062.58112,713.271254 1063.77945,713.309312 C1064.97777,713.347371 1066.0657,714.052463 1066.63341,715.158986 L1105.21535,793.188442 C1105.85874,794.257161 1105.86952,795.615386 1105.24318,796.695169 C1104.61684,797.774953 1103.4613,798.390274 1102.25973,798.283835 L1102.41864,798.417048 Z" id="Path" fill="#424242"></path>
                <path d="M1063.77271,798.406393 C1062.56946,798.512819 1061.41229,797.897574 1060.78508,796.817926 C1060.15786,795.738278 1060.16865,794.380223 1060.81294,793.311637 L1099.38535,715.158754 C1099.95385,714.052369 1101.0433,713.347366 1102.24331,713.309312 C1103.44332,713.271258 1104.57157,713.905935 1105.20307,714.974265 C1105.83458,716.042595 1105.87338,717.382275 1105.30488,718.488659 L1066.63699,796.375151 C1066.14815,797.583588 1065.02658,798.378958 1063.77271,798.406393 Z" id="Path" fill="#424242"></path>
                <polygon id="Path" fill="url(#linearGradient-1)" opacity="0.7" points="775.644172 713.307692 1158.82126 149.956731 1345 334.182898"></polygon>
                <polygon id="Path" fill="url(#linearGradient-2)" opacity="0.7" points="672.5 713.307692 103.144172 334.182898 289.322915 149.956731 672.5 713.307692"></polygon>
                <polygon id="Path" fill="url(#linearGradient-3)" opacity="0.7" points="715.820552 664.673077 523.972393 0 907.668712 0"></polygon>
                <ellipse id="Oval" fill="#231F20" opacity="0.11" style="mix-blend-mode: multiply;" cx="585.858896" cy="812.603365" rx="585.858896" ry="30.3966346"></ellipse>
                <polygon id="Path" fill="#4C8BFB" points="243.420245 567.403846 1118.08282 567.403846 1118.08282 802.471154 243.420245 802.471154"></polygon>
                <polygon id="Path" fill="#000000" opacity="0.1" points="581.733129 567.403846 1118.08282 567.403846 1118.08282 802.471154 581.733129 802.471154"></polygon>
                <polygon id="Path" fill="#6299FB" points="251.671779 567.403846 1130.46012 567.403846 1130.46012 579.5625 251.671779 579.5625"></polygon>
                <polygon id="Path" fill="#000000" opacity="0.1" points="243.420245 579.5625 1118.08282 579.5625 1118.08282 664.673077 243.420245 607.997836"></polygon>
                <polygon id="Path" fill="#3D6FCA" points="404.325153 255.331731 1010.81288 255.331731 1010.81288 806.524038 404.325153 806.524038"></polygon>
                <polygon id="Path" fill="#4A90E2" points="470.337423 255.331731 1010.81288 255.331731 1010.81288 806.524038 470.337423 806.524038"></polygon>
                <polygon id="Path" fill="#FFFFFF" points="655.996933 255.331731 800.398773 255.331731 800.398773 774.100962 655.996933 774.100962"></polygon>
                <polygon id="Path" fill="#000000" opacity="0.1" points="470.337423 559.298077 1010.81288 559.298077 1010.81288 810.576923 470.337423 810.576923"></polygon>
                <polygon id="Path" fill="#CECCBF" points="470.337423 774.100962 1010.81288 774.100962 1010.81288 790.3125 470.337423 790.3125"></polygon>
                <path d="M559.314525,652.514423 L618.865031,652.514423 L618.865031,774.100962 L559.314525,774.100962 L559.314525,652.514423 Z M495.092025,652.514423 L554.64253,652.514423 L554.64253,774.100962 L495.092025,774.100962 L495.092025,652.514423 Z" id="Shape" fill="#404040" fill-rule="nonzero"></path>
                <path d="M540.47546,705.201923 L549.200443,705.201923 L549.200443,729.519231 L540.47546,729.519231 L540.47546,705.201923 Z M564.756613,705.201923 L573.481595,705.201923 L573.481595,729.519231 L564.756613,729.519231 L564.756613,705.201923 Z" id="Shape" fill="#85837D" fill-rule="nonzero"></path>
                <path d="M914.147246,652.514423 L973.680982,652.514423 L973.680982,774.100962 L914.147246,774.100962 L914.147246,652.514423 Z M849.907975,652.514423 L909.441711,652.514423 L909.441711,774.100962 L849.907975,774.100962 L849.907975,652.514423 Z" id="Shape" fill="#404040" fill-rule="nonzero"></path>
                <path d="M895.291411,705.201923 L904.007463,705.201923 L904.007463,729.519231 L895.291411,729.519231 L895.291411,705.201923 Z M919.581494,705.201923 L928.297546,705.201923 L928.297546,729.519231 L919.581494,729.519231 L919.581494,705.201923 Z" id="Shape" fill="#85837D" fill-rule="nonzero"></path>
                <polygon id="Path" fill="#000000" opacity="0.1" points="441.457055 563.350962 1010.81288 563.350962 1010.81288 595.774038 441.457055 574.179887"></polygon>
                <polygon id="Path" fill="#FFFFFF" transform="translate(742.638037, 498.269231) rotate(90.000000) translate(-742.638037, -498.269231) " points="681.609191 197.088249 803.666883 197.088249 803.666883 799.450212 681.609191 799.450212"></polygon>
                <polygon id="Path" fill="#CECCBF" points="470.337423 790.3125 1064.44785 790.3125 1064.44785 806.524038 470.337423 806.524038"></polygon>
                <polygon id="Path" fill="#CECCBF" points="470.337423 806.524038 1118.08282 806.524038 1118.08282 822.735577 470.337423 822.735577"></polygon>
            </g>
        </g>
    </g>
</svg>